<?xml version="1.0" standalone="no"?>
<!DOCTYPE svg PUBLIC "-//W3C//DTD SVG 20010904//EN" "http://www.w3.org/TR/2001/REC-SVG-20010904/DTD/svg10.dtd">
<svg xmlns="http://www.w3.org/2000/svg" version="1.0" viewBox="0 0 250 480" preserveAspectRatio="xMidYMid meet">
<metadata>
Created by potrace 1.16, written by Peter Selinger 2001-2019
<meta name="Producer" content="Online-Convert"/></metadata>
<g transform="translate(0.000000,468.000000) scale(0.100000,-0.100000)" fill="#000000" stroke="none">
<path d="M1108 4596 c-186 -78 -344 -206 -463 -375 -62 -88 -98 -117 -230 -184 -91 -45 -182 -113 -227 -168 -122 -149 -164 -360 -105 -527 62 -178 168 -277 430 -400 188 -89 218 -134 215 -319 -2 -134 8 -166 81 -262 22 -30 41 -59 42 -65 0 -6 1 -276 2 -599 1 -544 0 -590 -16 -601 -12 -9 -106 -14 -342 -19 -267 -4 -330 -8 -349 -21 -23 -15 -23 -18 -31 -280 -9 -344 -3 -379 69 -391 17 -2 168 -6 336 -8 168 -2 313 -7 322 -11 20 -9 25 -34 34 -179 9 -162 8 -161 354 -161 239 1 322 12 345 47 11 19 12 123 5 677 -4 360 -6 831 -4 1045 l5 390 49 95 c67 130 80 186 80 345 0 181 -2 178 235 294 181 88 259 146 328 243 150 212 174 402 77 603 -61 127 -157 214 -335 301 -96 48 -107 57 -200 178 -101 130 -274 262 -445 338 -105 46 -174 50 -262 14z m279 -65 c57 -28 119 -61 140 -75 37 -25 37 -26 11 -26 -15 0 -38 4 -52 10 -17 6 -27 6 -32 -2 -5 -7 -33 -9 -85 -5 -49 4 -79 3 -79 -3 0 -11 -123 -14 -134 -3 -9 9 -46 11 -46 3 0 -4 -30 -10 -67 -14 -48 -5 -68 -4 -74 5 -6 10 -13 10 -34 1 -14 -7 -38 -12 -53 -12 -24 0 -22 3 23 33 150 100 267 150 335 142 25 -3 91 -27 147 -54z m228 -144 c37 -19 145 -130 145 -149 0 -31 -38 -23 -42 10 -3 25 -7 27 -55 30 -71 4 -96 -10 -88 -49 6 -27 5 -29 -24 -29 -27 0 -31 3 -31 29 0 39 -14 47 -90 54 -75 7 -84 3 -94 -35 -4 -19 -13 -28 -26 -28 -13 0 -20 8 -22 28 -3 27 -4 27 -78 27 -75 0 -75 0 -78 -28 -3 -22 -8 -28 -25 -25 -13 2 -23 13 -27 28 -6 24 -10 25 -87 28 l-82 3 -3 -28 c-2 -20 -9 -29 -25 -31 -18 -3 -22 2 -25 30 -3 33 -4 33 -61 38 l-58 5 38 37 c44 43 101 58 139 37 21 -11 29 -11 47 1 16 10 68 14 200 16 98 1 181 5 184 7 9 10 248 4 268 -6z m-793 -164 c2 -22 10 -29 35 -34 53 -11 81 -1 85 30 3 24 7 26 51 29 46 3 47 2 53 -27 4 -19 13 -31 23 -32 9 -1 29 -3 46 -5 36 -4 55 11 55 42 0 21 5 24 39 24 34 0 39 -3 47 -32 9 -31 12 -33 62 -36 l52 -3 0 35 0 36 50 0 c62 0 62 -2 10 -127 -28 -67 -40 -111 -40 -145 0 -51 -14 -67 -18 -20 -3 44 -34 77 -75 80 -33 3 -38 0 -53 -31 -23 -49 -12 -103 30 -142 l33 -31 -23 -33 -23 -34 -6 29 c-21 92 -63 181 -104 218 -12 11 -24 16 -29 12 -4 -4 -7 -55 -7 -112 0 -100 -1 -104 -22 -104 -27 0 -53 -35 -53 -73 0 -22 -4 -28 -17 -25 -13 2 -19 14 -21 40 -2 20 -10 42 -18 48 -8 7 -14 21 -14 32 0 60 -72 154 -127 164 -37 7 -53 28 -34 47 21 21 13 38 -14 31 -21 -5 -25 -3 -25 16 0 19 4 21 25 16 27 -7 32 3 13 22 -16 16 -33 15 -52 -4 -20 -20 -21 -58 -1 -74 20 -17 19 -50 -1 -50 -29 0 -78 -37 -104 -78 l-25 -40 -34 30 c-31 27 -39 30 -88 26 -41 -4 -60 -11 -82 -32 l-28 -27 -36 23 c-20 13 -35 27 -33 32 1 5 57 39 124 75 133 72 168 99 209 163 47 75 52 78 109 78 50 0 53 -1 56 -27z m858 -2 c0 -45 51 -64 101 -37 24 12 27 11 49 -21 12 -18 38 -46 56 -62 l33 -29 -105 -77 -104 -76 0 -65 c0 -45 -4 -64 -12 -64 -7 0 -30 40 -50 87 l-38 87 30 31 c39 41 38 53 -7 57 -36 3 -38 5 -43 43 -3 27 -10 41 -22 43 -15 3 -18 -4 -18 -43 0 -40 -3 -47 -26 -55 -14 -6 -26 -10 -27 -10 -2 0 2 29 7 65 l10 65 41 0 c48 0 65 14 65 52 0 24 4 28 30 28 23 0 30 -5 30 -19z m-820 -290 c30 -22 57 -66 62 -101 l3 -25 -132 -2 c-73 -1 -135 3 -138 7 -6 10 30 86 51 107 44 44 105 50 154 14z m-142 -177 l242 -6 0 -129 0 -129 -50 0 c-27 0 -50 -4 -50 -10 0 -6 -26 -10 -58 -10 -67 0 -82 -11 -82 -57 0 -30 -3 -33 -29 -33 -28 0 -30 3 -33 43 l-3 42 -56 5 -56 5 23 38 c14 20 30 37 38 37 7 0 20 -18 29 -40 8 -22 20 -40 27 -40 34 0 14 90 -26 117 -23 15 -23 16 -7 29 10 7 39 14 66 14 35 0 47 4 47 15 0 24 -49 38 -89 26 -42 -12 -46 -10 -31 19 8 16 9 25 1 33 -13 13 -35 -4 -51 -42 -11 -28 -13 -28 -38 -15 -15 8 -48 14 -74 14 -41 0 -48 -3 -48 -20 0 -17 7 -20 41 -20 42 0 79 -14 79 -30 0 -15 -28 -12 -55 6 -33 21 -78 10 -109 -26 -23 -28 -46 -104 -46 -154 0 -46 -13 -86 -27 -86 -12 0 -13 15 -7 83 10 134 -18 207 -82 207 -36 0 -80 -42 -90 -88 -3 -15 -10 -40 -14 -57 l-8 -30 -1 31 c-2 50 19 144 46 212 l26 64 156 -6 c86 -3 265 -9 399 -12z m1292 -44 l0 -51 73 3 72 3 3 48 3 47 39 0 39 0 3 -52 3 -53 56 -3 c66 -3 69 -7 69 -114 0 -87 -17 -165 -38 -173 -9 -3 -108 -1 -220 6 -115 6 -208 7 -213 2 -4 -4 -9 -75 -10 -156 0 -81 -3 -147 -6 -147 -3 0 -31 21 -63 48 l-59 47 0 233 c-1 228 -2 234 -26 282 -14 27 -25 54 -25 60 0 5 18 10 39 10 40 0 40 0 43 -42 l3 -43 65 0 65 0 3 35 c4 54 9 60 47 60 l35 0 0 -50z m-620 -155 c0 -74 -2 -85 -17 -85 -10 0 -38 -10 -63 -21 l-44 -20 22 24 c63 67 40 169 -34 154 -27 -5 -26 -5 -18 17 5 13 22 16 80 16 l74 0 0 -85z m-1166 23 c12 -17 16 -49 16 -126 0 -103 0 -104 -22 -98 -13 3 -35 6 -50 6 -28 0 -28 0 -28 69 0 72 13 125 38 154 20 22 28 22 46 -5z m226 -3 c0 -3 -9 -15 -20 -27 -11 -12 -19 -31 -18 -44 2 -23 10 -22 41 4 9 8 17 11 18 6 0 -5 2 -18 4 -29 5 -23 -23 -117 -38 -126 -5 -4 -25 -7 -43 -7 -34 0 -34 0 -34 47 1 97 33 181 70 181 11 0 20 -2 20 -5z m160 -182 c0 -48 11 -54 81 -51 l64 3 9 38 c9 34 13 37 43 37 32 0 34 -2 30 -29 -7 -41 5 -53 59 -58 27 -3 57 -12 66 -20 16 -14 15 -17 -10 -38 -19 -16 -26 -32 -26 -58 0 -45 25 -73 76 -89 l40 -12 -5 -60 c-9 -105 -22 -152 -56 -195 -31 -39 -36 -41 -85 -41 l-53 0 -7 55 c-3 30 -17 88 -30 130 -13 41 -22 75 -19 75 2 0 18 -7 34 -16 17 -8 37 -13 45 -10 28 11 14 37 -31 57 -51 23 -51 38 1 70 34 20 45 48 22 50 -29 3 -44 -4 -73 -31 l-30 -29 -24 24 c-31 33 -55 33 -49 0 4 -19 1 -25 -13 -25 -29 0 -69 -22 -69 -37 0 -11 11 -14 38 -12 74 4 76 2 37 -36 -59 -60 -39 -99 22 -44 l37 32 23 -69 c13 -38 26 -95 30 -126 6 -55 5 -58 -17 -58 -14 0 -38 18 -66 49 -29 32 -68 60 -114 82 l-69 34 -1 126 c0 69 3 167 6 217 l7 92 38 0 c36 0 39 -2 39 -27z m770 -174 l0 -160 -27 21 c-14 11 -46 25 -70 31 -32 9 -43 16 -43 31 0 10 7 21 15 24 18 7 20 26 3 23 -28 -3 -38 2 -38 21 0 11 5 20 11 20 6 0 9 6 6 14 -4 9 8 20 34 32 39 17 99 75 99 94 0 6 2 10 5 10 3 0 5 -72 5 -161z m408 -235 c87 -7 92 -8 92 -30 0 -17 -13 -29 -56 -51 -75 -38 -124 -80 -141 -120 -7 -19 -19 -33 -26 -31 -7 2 -45 14 -86 28 l-74 25 -28 60 c-15 33 -30 75 -33 93 l-5 32 133 0 c73 0 174 -3 224 -6z m-660 -544 c66 -35 66 -34 48 -68 -9 -17 -14 -37 -11 -44 3 -8 -14 -25 -41 -42 l-46 -29 -63 34 c-61 32 -63 35 -47 53 9 10 17 30 17 44 0 20 9 32 40 49 49 28 56 28 103 3z m304 -15 c16 -14 36 -25 44 -25 20 0 17 -13 -7 -28 -16 -10 -20 -21 -17 -42 4 -24 -1 -31 -34 -50 -44 -25 -83 -21 -133 14 -16 11 -32 22 -35 24 -3 2 3 8 14 14 14 8 17 17 11 44 -5 30 -3 36 27 54 45 28 93 26 130 -5z m-451 -135 c31 -16 39 -25 34 -40 -3 -10 3 -33 14 -51 l20 -33 -32 -19 c-43 -27 -98 -39 -114 -25 -18 14 -18 174 0 181 23 10 38 7 78 -13z m274 -13 c22 -12 42 -31 44 -42 2 -11 12 -33 23 -48 11 -16 19 -29 17 -30 -2 -1 -18 -12 -36 -25 -18 -12 -47 -22 -65 -22 -41 0 -110 44 -102 64 3 8 -5 28 -17 45 -12 17 -21 32 -18 34 29 22 78 47 94 47 11 0 38 -11 60 -23z m309 0 c16 -12 16 -15 2 -42 -9 -17 -16 -40 -16 -51 0 -49 -13 -84 -30 -84 -33 0 -83 43 -85 72 0 15 -11 38 -24 52 l-24 25 29 11 c16 5 36 14 44 19 22 14 84 13 104 -2z m-427 -148 l54 -31 -22 -24 c-13 -14 -20 -31 -16 -43 4 -15 -3 -26 -28 -41 -43 -27 -67 -25 -118 6 -55 35 -53 32 -32 48 11 8 18 25 17 43 0 25 6 33 41 51 23 11 44 21 46 21 2 1 28 -13 58 -30z m296 -8 c55 -29 55 -29 36 -47 -13 -12 -19 -27 -16 -41 3 -16 -6 -33 -30 -58 -19 -19 -37 -35 -41 -35 -4 0 -34 16 -65 36 l-58 36 22 24 c14 15 20 30 16 46 -5 18 1 28 26 45 42 28 45 28 110 -6z m-446 -127 c41 -24 43 -27 29 -43 -20 -22 -20 -50 -1 -71 14 -15 13 -18 -10 -30 -14 -7 -25 -17 -25 -22 0 -9 -51 -11 -74 -2 -13 5 -16 23 -16 90 0 78 2 85 23 94 12 5 24 9 26 9 2 1 24 -11 48 -25z m290 -18 c26 -16 31 -25 26 -44 -4 -16 1 -30 16 -46 l22 -23 -30 -13 c-17 -7 -36 -18 -42 -26 -30 -36 -139 11 -139 60 0 12 -8 32 -17 46 -9 13 -13 25 -7 27 5 2 22 11 38 21 38 23 93 22 133 -2z m263 -81 c0 -89 -1 -95 -21 -95 -11 0 -37 10 -58 22 -36 21 -38 24 -33 60 4 30 1 39 -13 44 -30 12 41 63 88 64 l37 0 0 -95z m-390 -75 c25 -19 25 -19 7 -50 -14 -24 -16 -34 -7 -45 13 -16 -12 -36 -68 -56 -34 -12 -40 -9 -101 39 -23 18 -23 20 -7 45 10 14 16 33 14 43 -8 45 112 62 162 24z m250 10 c15 -11 40 -24 55 -30 26 -10 27 -12 11 -29 -9 -9 -16 -31 -16 -48 0 -26 -5 -32 -43 -47 -59 -22 -80 -20 -119 11 -18 15 -35 28 -37 30 -2 1 6 11 18 20 19 16 21 22 12 45 -10 26 -8 29 32 47 54 25 54 25 87 1z m-435 -134 c25 -20 31 -30 28 -53 -2 -15 2 -37 10 -48 14 -18 12 -20 -25 -37 -22 -10 -51 -18 -64 -18 -23 0 -24 2 -24 80 0 65 3 81 18 89 23 14 21 14 57 -13z m291 -12 c29 -17 43 -32 40 -40 -3 -8 -9 -20 -12 -28 -3 -8 5 -23 17 -35 l22 -21 -57 -25 c-31 -14 -59 -25 -62 -25 -3 0 -26 15 -51 32 -35 26 -44 37 -40 56 3 13 -2 30 -12 39 -9 9 -11 18 -6 20 6 2 28 14 50 28 50 31 57 31 111 -1z m-129 -150 c12 -13 30 -24 39 -24 14 0 12 -6 -10 -29 -20 -20 -27 -36 -23 -51 4 -16 -3 -25 -36 -42 -48 -25 -100 -25 -126 0 -10 9 -26 22 -37 28 -18 11 -18 12 -1 31 9 11 17 33 17 49 0 25 7 32 47 49 57 25 100 21 130 -11z m412 -393 l2 -139 -33 -6 c-80 -15 -136 -54 -265 -183 -195 -196 -230 -209 -598 -219 l-230 -7 47 45 c27 25 48 53 48 65 0 22 -43 84 -84 122 -14 14 -26 27 -26 30 0 3 103 5 229 3 204 -3 238 -1 316 17 133 32 172 58 341 228 101 102 166 159 195 172 24 11 46 18 50 15 4 -2 8 -66 8 -143z"/>
</g>
</svg>
