<svg xmlns="http://www.w3.org/2000/svg" xmlns:xlink="http://www.w3.org/1999/xlink" viewBox="200 20 1000 1000"><defs><style>.cls-1{fill:none;}.cls-2{isolation:isolate;}.cls-3{clip-path:url(#clip-path);}.cls-4{fill:#be2025;}.cls-5{fill:#fff;}.cls-6{fill:#007a3d;}.cls-7{fill:#ce1126;}.cls-8{mix-blend-mode:screen;}.cls-9{fill:url(#linear-gradient);}</style><clipPath id="clip-path"><polygon class="cls-1" points="749.18 11.43 906.25 327.91 1256 377.95 1003.54 625.12 1064.03 973.17 750.96 809.5 438.62 974.57 497.56 626.21 244 380.13 593.52 328.58 749.18 11.43"/></clipPath><linearGradient id="linear-gradient" x1="283.79" y1="395.46" x2="1041.3" y2="395.46" gradientUnits="userSpaceOnUse"><stop offset="0" stop-color="#fff"/><stop offset="0.91"/></linearGradient></defs><title>Palestine</title><g class="cls-2"><g id="Layer_1" data-name="Layer 1"><g class="cls-3"><rect class="cls-4" x="10.5" width="1479" height="986"/><rect id="_4" data-name="4" x="234.14" y="-102.84" width="1031.71" height="403.54"/><rect id="_3" data-name="3" class="cls-5" x="234.14" y="300.7" width="1031.71" height="403.54"/><rect id="_2" data-name="2" class="cls-6" x="234.14" y="704.24" width="1031.71" height="403.54"/><path id="_1" data-name="1" class="cls-7" d="M234.14-107.77,750,500,234.14,1107.77Z"/></g><g class="cls-8"><path class="cls-9" d="M1041.3,365.92C810,395.73,615.25,511.53,497.46,737.69l20-118L283.79,393l322.06-47.51L749.28,53.23,894,344.84Z"/></g></g></g></svg>