<svg xmlns="http://www.w3.org/2000/svg" viewBox="250 120 200 750"><path fill="#FE3030" d="M80 267a69.7 69.7 0 0 1 12.2 6l3 1.6 3 1.8c8.9 5 17.7 10.3 26.5 15.5l23.3 13.6 29.9 17.5 23.1 13.5 29.9 17.5 23.1 13.5 29.9 17.5 23.1 13.5 29.9 17.5 23.1 13.5 29.9 17.5 23.1 13.5 29.9 17.5 23.1 13.5 29.9 17.5 23.1 13.5 29.9 17.5 23.1 13.5 29.9 17.5 23.1 13.5c10 5.7 20 11.6 29.9 17.5l24 14c24.7 14.2 24.7 14.2 26.1 17a93.8 93.8 0 0 1-4 7l-1.4 2a229.5 229.5 0 0 1-30.8 39.7A230.4 230.4 0 0 1 635 714l-3 2.3c-37.7 30-82.1 50-129 60.7l-2.7.6A346 346 0 0 1 459 784l-2.9.3a350 350 0 0 1-31 1h-3a387.7 387.7 0 0 1-159.6-35.4 370.2 370.2 0 0 1-92-58.8c-6-5.1-12-10.4-17.5-16-2-2-4-3.9-6.1-5.7a79 79 0 0 1-8.9-9 219 219 0 0 0-6.2-6.9A262 262 0 0 1 113 631l-1.6-2C57.2 556.1 29.2 465.2 42 374.6c4.5-30 13.2-58 25.7-85.6l1.3-3c7.2-15.3 7.2-15.3 11-19.1Z"/><path fill="#D8FED8" d="M80 267c3.3 1.3 6.5 2.7 9.6 4.5l2.6 1.5 3 1.6 3 1.7a1894 1894 0 0 1 24.6 14.4l1.8 1a1945.4 1945.4 0 0 1 8 4.8c2.4 1.5 2.4 1.5 4.4 3.5l-1 1.3c-25 34.9-32.2 81.8-32.3 123.5v3c-.1 58 19.9 115.5 54.3 162.2l1.3 1.7A308 308 0 0 0 208 645l1.6 1.4a336.8 336.8 0 0 0 171.8 76c69 10 144.5-8 200.6-49.4a235 235 0 0 0 11.6-9.3A222.5 222.5 0 0 0 628 629l2.5-3a223.2 223.2 0 0 0 13.7-19.4c1.6-2.5 2.9-4.8 3.8-7.6 3.6 1.4 7 3 10.3 5l3.1 1.7 3.4 2 3.4 2a2779 2779 0 0 1 24.9 14.6l3.2 2 3 1.8 2.7 1.5c2 1.4 2 1.4 3 3.4a93.8 93.8 0 0 1-4 7l-1.4 2a229.5 229.5 0 0 1-30.8 39.7A230.4 230.4 0 0 1 635 714l-3 2.3c-37.7 30-82.1 50-129 60.7l-2.7.6A346 346 0 0 1 459 784l-2.9.3a350 350 0 0 1-31 1h-3a387.7 387.7 0 0 1-159.6-35.4 370.2 370.2 0 0 1-92-58.8c-6-5.1-12-10.4-17.5-16-2-2-4-3.9-6.1-5.7a79 79 0 0 1-8.9-9 219 219 0 0 0-6.2-6.9A262 262 0 0 1 113 631l-1.6-2C57.2 556.1 29.2 465.2 42 374.6c4.5-30 13.2-58 25.7-85.6l1.3-3c7.2-15.3 7.2-15.3 11-19.1Z"/><path fill="#FE5352" d="M136 300c5.9 1.6 10.7 4.6 15.9 7.6l2.6 1.6 6.5 3.8-2.3 1.6c-18.4 16.2-24.8 54.6-28.3 77.6l-1 5.7a158.2 158.2 0 0 0-1.7 31.1 187.4 187.4 0 0 0 4 42.3C141 534.1 181 596.4 231 635l3 2.3a322.7 322.7 0 0 0 79.2 45c54.3 22 120.7 26.7 176.8 8.7l2.6-.8A242.8 242.8 0 0 0 583 640l2.8-2.4a113.4 113.4 0 0 0 16.6-17.3c8.7-9.7 19.5-21.9 23.6-34.3 5 1.7 9.3 4.4 13.8 7.1l2.4 1.4 5.8 3.5c-.5 4.5-2.5 7.8-5 11.5l-1.2 1.9A235.2 235.2 0 0 1 591 667l-2.9 2.3c-56.9 45.3-132.2 62-203.7 54.6a321.7 321.7 0 0 1-186.3-87.2 188.4 188.4 0 0 1-24-25 256 256 0 0 1-35.3-50.3A266.7 266.7 0 0 1 102.6 425v-3a249.1 249.1 0 0 1 25.2-108.8c2.3-4.8 5-9 8.2-13.3Z"/><path fill="#016C01" d="M80 267c3.8 1.4 7.4 3.2 11 5l-2 1-.8 2.5a54.5 54.5 0 0 1-4.4 9.5A266 266 0 0 0 55 369l-.4 2.4a296 296 0 0 0 .9 101.6A309.6 309.6 0 0 0 80 553l1.2 2.8A344.5 344.5 0 0 0 146 652l1.6 1.8c8.8 9.7 8.8 9.7 18.4 18.6a269.4 269.4 0 0 0 32.1 26.3c39.5 29.6 85.1 51.2 132.9 63.3l3 .8a293 293 0 0 0 72.6 10.4h4a3194.2 3194.2 0 0 0 16.3 0A271 271 0 0 0 476 770l3.9-.6c15-2.5 29.6-5.7 44.1-10.4l3-1a304.4 304.4 0 0 0 103.7-56.4A240.5 240.5 0 0 0 668 664l2-2.4c5.3-6.1 9.9-12.7 14.4-19.4l1.8-2.8c2.9-4.3 5.6-8.6 7.8-13.4 4.1 1.5 7.4 3.5 11 6a193.6 193.6 0 0 1-26 38l-2.4 3a317.4 317.4 0 0 1-20.2 21.8l-2.6 2.7a219.5 219.5 0 0 1-20.6 18c-38 30.5-83 50.7-130.2 61.5l-2.7.6A346 346 0 0 1 459 784l-2.9.3a350 350 0 0 1-31 1h-3a387.7 387.7 0 0 1-159.6-35.4 370.2 370.2 0 0 1-92-58.8c-6-5.1-12-10.4-17.5-16-2-2-4-3.9-6.1-5.7a79 79 0 0 1-8.9-9 219 219 0 0 0-6.2-6.9A262 262 0 0 1 113 631l-1.6-2C57.2 556.1 29.2 465.2 42 374.6c4.5-30 13.2-58 25.7-85.6l1.3-3c7.2-15.3 7.2-15.3 11-19.1Z"/><path fill="#9AFC9A" d="M89 273c3.7.5 5.6 1.1 8 4-1 1.5-1 1.5-1.8 3.1a274.2 274.2 0 0 0-31.7 86.1 272.5 272.5 0 0 0-.4 107.5A266 266 0 0 0 73 514l.9 2.7A342.6 342.6 0 0 0 154.7 651c5.9 6.6 12 12.7 18.7 18.6l5 4.5c32.7 29.2 72 51.9 112.6 67.9l2.8 1.1c15.1 6 30.5 10.1 46.2 13.9l3 .7c9.9 2.5 19.7 4.6 29.8 6l2.3.4c15.9 2.2 32 2.1 48 2h3a313 313 0 0 0 223.9-93 179.5 179.5 0 0 0 16.4-19.1c8-10.2 15.3-20.7 21.6-32l6 3a28 28 0 0 1-5.3 12.3l-1.3 2A227 227 0 0 1 663 671a211.7 211.7 0 0 1-37.4 36A303.2 303.2 0 0 1 533 757l-2.5.9a273.6 273.6 0 0 1-90 16.3h-3.9a3180.5 3180.5 0 0 1-16.3 0 313.8 313.8 0 0 1-56.2-4c-46.9-6.7-93.6-24.6-134.1-49.2l-2.2-1.3c-22.8-13.8-44-30-63.4-48.4-2-2-4.3-3.8-6.5-5.7a207.5 207.5 0 0 1-19.2-20 264.3 264.3 0 0 1-21.3-26.8c-9.1-12-17-24.6-24.4-37.8l-1.6-2.8c-12.7-23-22-47-29.4-72.2l-.8-2.5c-2.7-9.4-4.7-18.9-6.4-28.5l-.5-2.8L53 463c0-.7-.2-1.3-.3-2a311 311 0 0 1-2-41.6V416c0-15.8.3-31.4 3.3-47l.5-2.8A311.7 311.7 0 0 1 89 273Z"/><path fill="#1D1A1A" d="M471 512a18 18 0 0 1 7 7c1.5 12-1.4 20.8-8.8 30.3a22 22 0 0 1-15.8 8.1c-3.2 0-4.2-.2-6.8-2.1A20.3 20.3 0 0 1 443 539c3-10.2 8-18.8 17-24.6 3.9-2 6.6-3.5 11-2.4ZM314 615c3.8 1.7 5.5 3.1 7 7 1.3 10.9-1 19.1-7.4 27.9-4.4 5.4-8.8 8.7-16 9.5-3.6-.4-3.6-.4-6.5-2.7-4.2-5.3-3.6-11.2-3.1-17.7 2-9.4 8.6-16.9 16.1-22.6 3.6-1.7 6-1.9 9.9-1.4Z"/><path fill="#1C1A1A" d="M450 620c2.8 1.8 4.5 3 6 6a35.2 35.2 0 0 1-8 28.4 25 25 0 0 1-16.1 9c-3.7-.5-5.3-1.8-7.9-4.4a32 32 0 0 1 1.5-22.3c5-9 13.4-18.3 24.5-16.7Z"/><path fill="#1E1A1A" d="M541 599c3 1.7 3 1.7 5 5a35.8 35.8 0 0 1-7.3 27.9c-4.2 5-8.4 7.5-14.9 8.7-3.8-.8-5.3-2.6-7.8-5.6-2.3-4.6-1.5-10.7-.4-15.6 3.6-10.4 13.1-22.8 25.4-20.4Z"/><path fill="#1D1A1A" d="M186 466c2.8 1.8 4.5 3 6 6a37.2 37.2 0 0 1-8.4 28.5 25 25 0 0 1-13.8 7c-3.8-.7-5.3-2.5-7.8-5.5-2.3-4.6-1.5-10.7-.4-15.6 3.6-10.3 12.5-21.9 24.4-20.4ZM381 527c3.6 2.7 4.7 4.2 5.4 8.5.4 10.2-2.6 18-9.4 25.5-4.5 4.3-7.6 6.4-14 6.3-2-.3-2-.3-4.4-2.2-3.9-5.2-3.4-10.9-2.6-17.1 2.7-8 6.5-15.1 13.7-20 3.9-1.7 7.1-2.2 11.3-1Z"/><path fill="#1F1A1A" d="M296 488c4.1 3.4 5.8 5.5 6.5 10.8a35.6 35.6 0 0 1-9.6 21.6c-4.1 3.7-7.8 6.4-13.3 7-4.2-.5-5.7-1.5-8.6-4.4-2.2-4.3-1.6-9.9-.3-14.4 4.1-9.8 13-23.2 25.3-20.6Z"/><path fill="#1E1A1A" d="M183 352c4.1 3.5 5.9 5.5 6.4 10.9a32 32 0 0 1-9.4 21.7 16.4 16.4 0 0 1-12.6 5.4c-3.4-1-3.4-1-5.8-3.6-3-6.3-2-11.8.4-18.2 3.8-8.2 11.1-17.4 21-16.2ZM270 412c2.9 2 4.7 3.5 5.5 7 .3 7.4-2.4 14.5-6.8 20.4-4.2 4-8 6.7-13.9 7.2-3.8-.6-3.8-.6-6.3-3.2-2-4.6-2.3-7.7-.8-12.6 3.2-8.1 12-21.3 22.3-18.8Z"/></svg>