<svg xmlns="http://www.w3.org/2000/svg" version="1.0" viewBox="0 0 512 512">
  <g transform="rotate(180 256 256)">
    <path d="M149 149A1672 1672 0 0 0 0 302c1 3 7-4 153-150C299 7 305 0 302 0s-11 8-153 149zm7 7L0 312v8l1 9 164-165L330 0h-18L156 156zm12 12A2840 2840 0 0 0 0 339c1 3 18-14 172-168C332 11 342 0 339 0s-15 12-171 168zM352 4c0 2 1 5 3 7 3 6 4 8 2 10v1c2-2 6-1 10 2s5 3 10 3c7 0 8-1 3-4-5-4-10-5-15-5l-5 1 1-5-1-10c-2-3-2-4-5-4s-3 0-3 4zm65-1c0 6 0 8 3 12 3 5 4 7 1 10-1 2-1 2 1 1 3-3 4-3 10 2 5 3 6 3 10 2l6-1c2-1-1-3-7-6-5-2-7-2-11-2l-5 1 1-6c0-4 0-6-2-11-4-6-7-7-7-2zm21 1c1 3 1 3-1 5l-1 2 2-1c3-2 5-1 10 2 3 2 5 3 9 3l7-1c1-1 1-1-3-4-6-3-10-4-16-4l-5 1 1-4c0-3 0-3-2-3h-3l2 3zM242 242A6017 6017 0 0 0 0 487c1 3 27-23 246-242C464 27 490 0 488 0c-3 0-31 28-246 242zm7 7L0 498v14h512V0h-14L249 249zm88-237v7c0 4 0 5 3 9 4 5 4 7 1 9-1 2-1 2 1 1 2-3 5-2 10 2 4 3 8 4 14 2l3-1-6-4c-5-3-7-3-12-3l-7 1 1-4c2-5 0-11-4-17-3-4-3-4-4-3zm65 5c-2 6-1 9 3 14 4 6 4 7 1 9-1 2-1 2 1 1 2-3 3-3 9 1s10 5 16 3c2-1 2-1-2-4-7-4-9-4-15-4l-6 1 1-4c1-5 0-10-3-15s-5-6-5-2zm-80 11c-2 6-1 11 2 15 4 5 4 7 2 9v1c2-2 5-1 9 1l6 4c3 1 11 0 12-2l-7-4c-5-3-7-3-11-3l-6 1 1-6c0-5 0-7-3-12l-4-6-1 2zm65 3c-2 5-1 11 2 14 3 6 4 8 2 10v1c2-2 6-1 10 2s5 3 10 3c7 0 8-1 3-4-5-4-10-5-15-5l-5 1 1-5c0-6-2-12-5-16l-3-3v2zm-81 14c-2 6-1 7 3 13s4 7 1 10c-1 2-1 2 1 1 3-3 4-3 10 1l7 4 10-2c0-1-9-6-13-7h-7l-4 1v-7c0-6 0-7-3-12l-4-6-1 4zm65 1v7c0 4 0 5 3 9 4 5 4 7 1 9-1 3-1 3 1 1 2-3 5-2 10 2 4 3 5 3 10 3 8-1 8-2 1-6-6-3-7-3-12-3l-7 1 1-4c1-5 0-11-4-17-3-4-3-4-4-3zm-80 13c-2 6-1 10 3 15 4 6 4 7 1 9v1c2-2 6-1 10 2 4 2 5 3 9 3l7-1c2-1 2-1 0-2-7-5-11-6-17-6l-6 1v-7c0-7 0-8-3-12l-3-5-1 2zm65 3c-2 6-1 11 2 15 4 5 4 7 2 9v1c2-2 5-1 10 2l8 3c5 0 9-1 9-2l-6-4c-6-3-8-3-12-3l-6 1 1-6c0-5 0-7-3-12l-4-6-1 2zm-81 13c-1 6-1 10 3 14 3 5 4 7 1 10-1 3-1 3 1 1 3-3 3-2 10 2 5 3 7 3 11 3 7-1 7-2 1-6-6-3-11-4-16-3l-3 1 1-5c0-5 0-7-2-11l-4-7c-2-2-2-2-3 1zm65 4c-2 6-1 7 3 13s4 7 1 10c-1 2-1 2 1 1 3-3 4-3 10 2 4 3 5 3 10 3 7-1 8-2 3-5s-12-5-16-4l-4 1v-7c1-6 0-7-3-12l-3-6-2 4zm-80 12c-1 6-1 9 3 14 4 6 4 7 1 9-1 2-1 2 1 1 2-2 3-2 5-1l6 4c2 2 10 3 14 1 2-1 2-1-2-3-6-4-9-5-15-5l-5 1v-7c0-6 0-7-3-12l-4-5-1 3zm65 2c-2 6-1 10 3 15 4 6 4 7 1 9v1c2-2 6-1 10 2 4 2 5 3 9 3l7-1c2-1 2-1 0-2-7-5-11-6-17-6l-6 1v-7c0-7 0-8-3-12l-3-5-1 2zm-80 12c-2 5-1 11 2 15 3 5 4 8 1 10-1 3-1 3 1 1 3-3 4-2 10 2 5 3 6 3 10 3 8-1 8-2 3-5-6-4-11-5-16-4h-4l1-5c0-5 0-7-3-11-3-7-5-9-5-6zm64 4c-1 6-1 10 3 14 3 5 4 7 1 10-1 3-1 3 1 1 3-3 3-2 10 2 5 3 7 3 11 3 7-1 7-2 1-6-6-3-11-4-16-3l-3 1 1-5c0-5 0-7-2-11l-4-7c-2-2-2-2-3 1zm-80 13c-1 6-1 9 3 14 4 6 4 7 1 9-1 2-1 2 1 1 3-2 4-2 11 3 3 2 9 3 14 1 2-1 2-1-2-4-6-3-10-5-16-4l-5 1 1-4v-7c-1-4-6-13-7-13l-1 3zm65 3c-1 6-1 9 3 14 4 6 4 7 1 9-1 2-1 2 1 1 2-2 3-2 5-1l6 4c2 2 10 3 14 1 2 0 2-1-2-3-6-4-10-5-15-5l-5 1v-7c0-6 0-7-3-12l-4-5-1 3zm-80 11c-2 6-1 11 2 15s4 8 2 10c-1 1-1 1 0 0 2-2 6-1 10 2s5 3 10 3c7 0 8-1 3-4-5-4-11-5-15-5l-5 1 1-5c0-6-2-12-5-16l-3-3v2zm65 3c-2 5-1 11 2 15 3 5 4 8 1 10-1 3-1 3 1 1 3-3 4-2 10 2 5 3 6 3 10 3 7-1 8-2 3-5-7-4-10-5-15-5l-5 1 1-5c0-5 0-7-3-11-3-7-5-9-5-6zm-80 11-2 6c0 5 0 6 3 10 5 6 5 7 2 10-1 2-1 2 1 1 2-3 3-3 9 1 3 3 7 4 9 4l9-2-6-4c-5-3-7-3-12-3l-7 1 1-4v-8c-1-5-6-14-7-12zm64 6c-1 6-1 9 3 14 4 6 4 7 1 9-1 2-1 2 1 1 3-2 4-2 11 3 3 2 9 3 14 1 2-1 2-1-2-4-6-3-10-5-16-4l-5 1 1-4v-7c-1-4-6-13-7-13l-1 3zm-80 11c-2 6-1 10 3 16 3 6 3 6 1 8v1c2-2 5-1 10 2 4 3 5 3 10 3 8 0 8-1 3-5-6-3-10-5-16-4l-4 1 1-6c0-5 0-7-3-12l-4-6-1 2zm65 3c-2 6-1 11 2 15s4 8 2 10c-1 1-1 1 0 0 2-2 6-1 10 2s5 3 10 3c7 0 8-1 3-4-5-4-11-5-15-5l-5 1 1-5c0-6-2-12-5-16l-3-3v2zm-81 14c-1 6-1 9 3 14s4 6 1 9c-1 3-1 3 1 1 3-3 4-2 10 2 4 3 5 3 10 3 7-1 8-1 5-3-5-4-10-6-16-6l-6 1 1-5c0-5-1-10-5-16l-3-4-1 4zm66 0-2 6c0 5 0 6 3 10 5 6 5 7 2 10-1 2-1 2 1 1 2-3 3-3 9 1 3 3 7 4 9 4l9-2-6-4c-6-3-7-3-13-3l-6 1 1-4v-8c-1-5-7-14-7-12zm-81 14c-2 5-1 11 2 14 4 5 4 8 2 10v1c2-2 5-1 10 2s11 4 16 2c2-1 2-1-3-4-6-3-11-4-16-4l-4 1 1-6c0-5 0-7-3-12l-4-6-1 2zm65 3c-2 6-1 10 3 16 3 6 3 6 1 8v1c2-2 5-1 8 1 5 4 9 5 14 4l4-2-4-3c-5-3-6-3-12-3h-7l1-6c0-5 0-7-3-12l-4-6-1 2zm-81 13c-1 6 0 10 3 15 4 5 4 7 1 9-1 3-1 3 1 1 3-3 3-2 10 2 5 3 7 3 11 3l5-2c1-1-8-7-13-7h-7l-3 1 1-5c0-5 0-7-2-11l-4-7c-2-2-2-2-3 1zm65 4c-1 6-1 9 3 14s4 6 1 9c-1 3-1 3 1 1 3-3 4-2 9 2 5 3 9 4 15 2l3-1c0-1-9-6-13-7h-7l-4 1 1-5c0-5-1-10-5-16l-3-4-1 4zm-80 12c-1 6-1 9 3 14 4 6 4 7 1 9-1 2-1 2 1 1 2-2 3-2 5-1l6 4c2 2 10 3 14 1 2-1 2-1 0-2-7-5-11-6-17-6l-6 1 1-6c0-6 0-7-3-12l-4-6-1 3zm65 2c-2 5-1 11 2 14 4 5 4 8 2 10v1c2-2 5-1 10 2s11 4 16 2c2-1 2-1-3-4-6-4-11-5-16-4l-4 1 1-6c0-5 0-7-3-12l-4-6-1 2zm-80 12c-2 7-2 11 2 15 3 5 4 8 1 10-2 3-2 3 1 1 2-3 4-2 10 2 5 3 6 3 10 3 8-1 8-2 3-5-6-4-11-5-16-4h-4l1-5c0-4 0-6-2-10l-4-8c-2-2-2-1-3 1zm65 3c-2 7-2 9 1 15 5 7 5 7 2 10-1 2-1 2 1 1 3-3 3-3 10 2 5 3 7 3 11 3l5-2c1-1-8-7-13-7h-7l-3 1 1-6c0-4 0-6-2-10l-4-7c-2-2-2-2-2 0zm-81 14c-1 6-1 9 3 14 4 6 4 7 1 9-1 2-1 2 1 1 3-2 5-2 11 3 3 2 10 3 15 1 1-1 1-1-3-4-6-3-10-4-16-4l-5 1 1-4v-7c-1-4-6-13-7-13l-1 3zm65 3c-2 6-1 9 3 14 4 6 4 7 1 9-1 2-1 2 1 1 2-2 3-2 5-1l6 4c2 2 10 3 14 1 2 0 2-1-2-3-6-4-10-5-15-5l-5 1v-6c0-6 0-7-3-12l-4-6-1 3zm-80 10-1 7c0 4 1 6 3 9 3 5 4 7 1 10-2 2-2 2 1 1 2-3 4-2 10 1 3 3 5 3 9 3 10 0 10-2 0-7-5-2-7-2-11-2l-5 1 1-5c0-6-2-12-5-16-2-3-3-3-3-2zm64 5c-1 6-1 10 3 14 3 5 4 8 1 10-1 3-1 3 1 1 3-3 4-2 10 2 5 3 6 3 10 3 8-1 8-2 3-5-6-4-11-5-16-4h-4l1-5c0-4 0-6-2-10l-4-8c-2-1-2-1-3 2zm-80 16c-1 5-1 5 2 10 4 6 5 7 2 10-2 2-2 2 1 1 3-2 4-2 11 3 3 2 9 3 14 1 2-1 2-1-2-4-7-4-9-4-15-4l-6 1 1-4c1-4 0-10-3-15-4-6-5-6-5 0zm65 0c-1 6-1 9 3 14 4 6 4 7 1 9-1 2-1 2 1 1 3-2 5-2 11 3 3 2 9 3 14 1 2-1 2-1-2-4-6-3-10-4-16-4l-5 1 1-4v-7c-1-4-6-13-7-13l-1 3zm-80 11c-2 5-1 11 1 14 5 7 5 8 3 10v1c2-2 5-1 10 2 4 3 5 3 10 3 8 0 8-1 3-5-6-3-10-5-16-4l-4 1 1-5c0-6-2-12-5-16l-3-3v2zm65 2-1 7c0 4 1 6 3 9 3 5 4 7 1 10-2 2-2 2 1 1 2-3 4-2 10 1 4 3 5 3 10 3 7 0 8-1 3-4-5-4-11-5-15-5l-5 1 1-5c0-6-2-12-5-16-2-3-3-3-3-2zm-81 15c-1 6-1 10 3 14 4 5 4 6 1 9-2 2-2 2 1 1 2-3 4-3 9 1s8 5 15 3l3-1-6-4c-5-3-7-3-12-3l-6 1v-5c1-5 0-10-4-16l-3-4-1 4zm65 3c-2 6-1 9 3 14s4 7 1 9c-1 3-1 3 1 1 2-3 3-2 9 2 6 3 10 4 16 2 2-1 2-1-2-4-7-4-9-4-15-4l-6 1 1-4c1-4 0-9-3-15-3-5-5-6-5-2zm-80 11c-2 6-1 11 2 15 4 5 4 7 2 9v1c2-2 5-1 9 1 6 5 9 5 14 4s5-1 3-3l-7-4c-4-2-6-2-10-2l-6 1 1-6c0-5 0-7-3-12l-4-6-1 2zm65 3c-2 5-1 11 1 14 5 7 5 8 3 10v1c2-2 5-1 10 2 4 3 5 3 10 3 7 0 8-1 2-5-5-3-9-5-15-4l-4 1 1-5c0-6-2-12-5-16l-3-3v2zM0 361c0 5 1 8 2 9 2 3 1 5-1 7-1 2-1 2 1 1 3-3 4-3 9 1 4 3 5 3 10 3h6c2-1 2-1-2-4-5-3-11-5-16-4l-4 1 1-5c0-5 0-7-2-11l-3-6-1 8zm62-6v7c0 4 0 5 3 9 4 5 4 7 1 9-1 2-1 2 1 1 3-3 4-3 9 1s9 5 15 3l3-1-6-4c-5-3-7-3-12-3l-6 1 1-5c0-5-1-10-5-16-2-4-3-4-4-2zm-15 16c-2 6-1 11 2 15 4 5 4 7 2 9v1c2-2 5-1 9 1 6 5 9 5 14 4s5-1 3-3l-7-4c-4-2-6-2-10-2l-6 1 1-6c0-5 0-7-3-12l-4-6-1 2zm-16 17c-2 6-1 7 3 13s4 8 1 10c-2 2-2 2 1 1 2-3 4-3 9 1 4 3 5 3 10 3 8 0 9-1 4-4-6-4-12-5-17-4l-3 1 1-6c0-4 0-6-2-10l-4-8c-2-1-2-1-3 2zm-15 15c-2 7-1 9 3 14 4 6 4 7 1 9v1c2-2 6-1 10 2s5 3 9 3l7-1c2-1 2-1 0-2-8-5-11-6-17-6l-6 1 1-6c0-6 0-7-3-12l-4-6-1 3zM1 416l-1 7c0 5 1 6 3 10 3 4 4 6 1 9-2 2-2 2 1 1 3-3 4-3 10 2 5 3 6 3 10 3 7-1 8-2 3-5-7-4-11-5-16-4H8l1-5c0-4 0-6-2-10l-4-7-2-1z"/>
  </g>
</svg>
