<svg xmlns="http://www.w3.org/2000/svg" viewBox="75 50 80 167"><path d="m116 220-3-3-1-3c0-2 0-3 2-5l2-4 2-2 1-4-2-4-2-1c-2 0-2-1-3-2l-2-1-1 1-2 1-1 1v5c0 3 0 4 3 7 3 4 4 7 2 10l-3 1-2 1h-3a24 24 0 0 1-8-1l-2-2-3-1-8-1h-5l-2-2-1-1v-7c-1-1 0-3 1-4l1-1-1-1-1-1 2-6 3-1c2 0 3 1 5 5l6 2 4 1h2l-1-1c0-2-1-2-2-2-2-1-5-2-6-5-2-3-3-10-2-16v-3l-1-2-2-5v-4c2-6 2-10 1-13v-1l-1-3a16 16 0 0 1-2-5 40 40 0 0 1-1-21 24 24 0 0 1 5-9l2-2 2-2-2-3v-5c0-2 1-2 2-2v-7l-3-1-4-1-1-1 7 2h1l1-3 1-6 1-2 1-2-1-1a50 50 0 0 1-4-3c-2-1-2-2-1-2l3 3 3 1 1 1 3-3 5-4c2-1 2-1 0-3l-4-6v-1l2 2v1l1 1 3 4h3l6-2 4-1-2-7v-2l1 1 2 8h1l6 1h5l1-3a73 73 0 0 1 2-5l1-1-1 3-2 5v2l1 1 7 3 1 1 2-1 5-6-1 3-5 5 1 1 4 7 1 3 2-1 5-3h1l-3 2-4 2-1 1v10l4-2h3l-4 2-4 1v2l-1 3v3l1 1c1 1 0 5-2 8l-1 1 1 1 1 3 3 7c1 2 2 14 1 17l-2 8-5 6-2 1v3l1 4 1 9-1 2v3l1 1v12c-2 5-5 8-10 9l-2 2 1 1h1l1 1h2l2 1h5l1-1 2-3 3-1 2 1 2 2v7a1057 1057 0 0 1-1 5c0 1 0 2-2 3h-1l1 2c0 2 0 2-2 2h-7l-4 1-6 1-2 1h-1c-3 2-8 2-10 1m5 0 3-1h1l2-1 9-2 4-1h3l1-1v1h3l-2-3-1-2 1 1c2 1 4 0 4-1l-2-2-1-1c-1-1 0-1 1-1l2 1v-3l-3-1h-1l4-1c1 1 1 1 1-1 1-2 0-4-1-5l-2-1c-2 0-4 2-5 5l-2 1-1-1c-2 0-2 1-2 2h3c1-1 2 0 0 0l-1 2h4-1l-2 1-1 1-2-2v2h-1v-1h-2l1-2c-1-1-3 0-2 1v1h-2c-2 0-2-1-1-2l1-1c-1 0-2 0-3 2l-2 1 1-2 1-1c0-3 0-3-1-2l-1 1-1 2h-2c-2 1-2 0 0-1v-1h-2v-1l1-2-1-1-1-2v5c0 2 0 2-3 5l-2 4-1 5 1 5zm-15-3 3-1 1-1v-2c0-2 0-4-2-6a917 917 0 0 0-7-6v2l1 2c-1-1-2-2-3-1l-2 2v-1l1-1-1-1-1 1v1h-2c-1 1-1 0-2-1-1-2-1-2-2-1h-1l1-1h-1v-2h-3v-1h-2v-1h-5l-4 2c-1 2-1 3 2 2h2l-2 1-2 1c-1 2 0 3 2 2h2l-2 1-2 2 2 1h1-1l-1 2 4 1 2-1v-1l5 1 4 1 2 2c2 2 3 2 6 2l3 1zm-12-13c1-1 0-2-1-2v1zm38 0h-1zm-32-1v-1h-2v1zm37 0v-1h-2l1 1zm-41-1v-1l-1 1zm28 0c-1 0 0 0 0 0m9 0v-1h-1v1zm-35-1h1l-1-1h-1l1 2zm32 0v-1l-1 1zm-38 0c1-1 0-2-1-1v1zm43 0v-1l-1 1zm-10-1v-1h-1v1zm6 0v-1h-2l1 1zm-30 0v-1h-1l-1 1zm-7-1h-1zm33 0 1-2h-2v2zm-24 0-1-1-1 1zm-16-1h-1l1 1zm3 0-2-1v1zm3 0h-1c-1 0 0 0 0 0zm6 0v-1l-1 1zm5 0v-1l-1 1zm-24-1 4-1-3-5-3-1c-1 0-3 2-3 4l1 3 2 1zm44 0h-1v1zm-39 0h-1zm16 0v-1l-1 1zm25-1h-2zm-38 0h-1v1zm10 0q1.5 0 0 0h-1zc-1 1-1 1 0 0m5 0v-1l-1 1zm19 0v-1l-1 1zm-22-1-1 1zm19-1-2-1 1 1zm6 0-1-1v1zm2 0c1-1 0-2-1-2v2zm-28-1v1zm22 0-1-1v1zm9 0q1.5 0 0 0h-1l1-1v-1l-1 1-1 1zm-34 0-1-1-1-1v-1l-1-1v-1h2l-1-1h-1c-2 1-2 0-1-1h1v-2l1 1h1l1-1-1-1h-1v-2h-1v-1l-1-1-1-2 1 1 3 1v-1l-2-1v-1l-1-1 1-1v-2a13 13 0 0 1 4-2l-1-2h-2l1-1-1-1-1-2 2 1 1 1v-1l-1-1 1-1v-1h-2l-1 1-3 2-3 2-2 9 2 11 3 4zm6 0v-1l-2 1zm4 0-1-1v1zm9-1h-1v-1l-1-1-1-1-1 1 1 1 3 2zm9 0-1-1-1 1 1 1zm-26 0c1 0-1-2-2-1l1 2zm20 0v-1h-2v1zm15 0q1.5 0 0 0l-1 1zm-25 0 1-1c-1-1-2 0-2 1zm-4 0 1-1-2 1zm22 0v-1h-1q-1.5 0 0 0zm-26-1v-1h-1v1zm20 0-2-1 1 1 1 1zm13 0-1-1v1zm-30 0v-1zm26 0 1-1-1-1-2 1 1 1zm-7 0v-2h-1l-1 1zm-15-1h-1zm-11 0v-1l-1 1zm7 0v-2l-2 1v1zm13 0v-1l-2-1v1l1 1zm20 0h-1zm-4 0-1-2-1 1 1 1zm-7 0v-1h-2l1 1zm-27-1 1-1h-2v1zm8 0h-1zm3 0h-1zm3 0-1-1-1 1zm7 0-2-2v2zm16-1-2-1v2h1zm-7 1v-2h-2v2zm10 0v-1l-1 1zm-32-1-1-1-1 1zm15 1 1-1-1-1-2-1v2zm-11 0v-1h-1zm-9-1 1-1-1-1h-2l1 1zm8-1-1 1zm30-1h-3v2l2-1zm-25 2 1-2h-2v2zm9-1v-1l-2-1v1l1 1v1zm7 0v-1h-1v1zm-22 0v-1h-1l-1 1zm-11 0c1-1 0-2-1-1l-1 1zm29-1v-1l-1-1c-2 0-2 1-1 2l1 1zm7 1v-2h-1l-1 1zm-29-1v-1h-2v1zm13 0-2-1 1 2zm-4 0 1-1h-1l-1 1zm-13-1-1-1-1 1zm6 0 1-1h-1v-1h-1l-1 1 1 2zm4 0-1-1v1zm9 0-1-1-1 2zm10 1-1-2-1-1v1l1 2zm7-1 1-2-2 1c-2 0-2 0-1 1zm-14-1-2-1v2h1zm-7 0h-1zm16 0v-1l-2-1v2zm-29 0-1-1-1 1zm10 0v-1l-1 1zm-3 0v-2h-2v2zm30 0v-2h-1v1zm-21 0v-2l-2 2zm6-1v-1h-2v1zm-26 0v-1h-1v1zm36 0 1-1v-1h-4l2 3zm-30 0 1-2h-2v2zm10-1h-1v1zm6 0v-1h-1v1zm7 0-1-1-1 1zm-27 0v-1l-1-1v2zm11 0-1-1-1 1zm5 0 1-2h-1l-1 2zm22-1h1l-1-1-2-1v2zm-31 0v-1h-1l-1 1zm16 0v-1h-1l-1 1zm6 0h1l-1-1v-1l-2 1 1 2zm-32 0-1-1h-1v1zm6 0v-2h-2v1zm10-1h-1v1zm6 0c0-1-1-2-2-1l1 2zm13 0 1-1-1-1h-1c-2 1-2 1-1 2zm-33 0-1-2-1 2zm10 0v-1h-2l1 1zm16 0-1-1v1zm15-1c0-2 0-3-2-1v1c1 2 2 2 2 0m-35 0v-1h-1v1zm10 0v-1l-1 1zm6 0h1l-1-1-2-1v2zm6 0c1-1 1-2-1-2v2zm-26 0v-2h-2l1 2zm34 0 1-2-1-1-1 1h-1l1 2zm-24 0c1-1 0-2-1-2v1q-1.5 0 0 0zm-4-1v-1h-1v1zm10 0v-1q0-1.5 0 0h-1v1zm7 0-1-2h-1v2zm6 0 1-2c-1-1-2 0-3 1l1 1zm-33-1-1-1h-1c0 1 1 2 2 1m7 0-2-2v2l1 1zm9 0v-1l-1 1zm25 0v-2h-1l-1 1 1 2zm-28 0v-2h-1l-1 2zm16 0v-2h-2v1zm-6-1-2-1v1zm-21 0v-1h-1v1zm7 0-2-1v1zm9 0h1v-1h-1l-1 1zm18 0 1-1h-2l-1 1zm-4-1h1l-1-1-1-1h-1v2zm-34 0-1-1v1zm27 0-1-1-1 1zm-21 0v-1h-2l1 1zm7 0 1-1h-1l-1-1-2 1 2 1zm4 0-1-1zm6 0v-2h-1v1zm18 0 1-1v-1h-2l-1 1zm4-1h-1v1zm-43 0v-1h-1v1zm6 0v-1h-1v1zm21 0c1-1 0-2-1-1v1zm8 0v-2h-2l-1 2zm-22-1v-1h-1v1zm4 0h-1v1zm6 0 1-1h-2v1zm19 0-1-2-1 2zm-39 0v-1h-2v1zm6 0-1-1h-1v1zm20 0 1-2h-2v2zm9-1-1-1-1-1-1 2zm-39 0-2-1v1zm26 0 1-1h-1l-1 1zm-20 0-1-2-1 1v1zm14 0v-1l-1 1zm-7-1-3-1v1l1 1 1-1zm3 0v-1h-1v1zm7 0c-1 1-1 1 0 0m11 0v-1h-2v1zm-32-1h-1v1zm27 1v-2h-1v2zm11-1v1h1zm-32 1-1-1-1-1v1zm14-1h1zc-1-1-2 0-1 1zm-4-1v1zm-14 1-1-1v1zm11 0v-3l-1 2-1 1zm21 0v-1l-2-1 1 1zm-26-1 1-1-1-1-1 1-1 1zm15-1h-2v1h2zm7 1v-1h-2v1zm10 0v-1l-2 1zm-36 0-1-1v1zm-3-1-1-1c-1-1-2-1-1 1zm24 0v-1h-1v1zm12 0-1-1h-1v1zm2 0v-1l-1 1zm-28 0 1-1 2-4 1-1v6-1l1-1 1-1 1-5v-2l1-1 1-1 2-1 8-5v-1l-6-5-2 1-2 1-1 2h-2l-6 4h-1l4-3 2-2-1-1-1 1-1 1-1-1v-1l-2-1h-1 1l1-1c0-1-1-2-3-1v1h-2l-3 2h-1l1 1q1.5 0 0 0v1l5 4 1 2h-1l-2 2-3 5-1 2h1v1h1l3-3c1-3 3-5 4-4l-2 2-2 4-2 4c1 1 2 0 3-1l3-4 2-3-1 3c-2 3-3 5-2 6zm21-1h-1c-1-1-1-1 0 0zm-13 0v-2l-1-1-1 1v2zm3 0h-1zm-20 0v-1c-1-1-2 0-1 1zm-15 0 1-1h1l2-1 6-4h-3l-1-1-1-1q-1.5 0 0 0v-1h-1c-1 0-1-1 1-2l2-2h-2l2-2 1-1h-2v-2h-1l-1 1v-1l2-2h-2l-4-2h-1v10l-1 5v5zm40-1c2 0 2-1 0-1l-1 1v1zm15 0h-2zm-37 0v-2l-1 1-1 1zm18 0h1zm12 0h-1zm3 0v-1h-2v1zm-5-1v-1h-1v1zm-33 0v-1l-2-1 1 1zm26 0-1-1-1 1zm14-1-1-1v2zm-18 0-3-4v3l2 1zm8 0-1-1h-1v1zm6 0v-1l-2-1v2zm-12 0-1-2v1zm18 0-1-2v1zm-41-1-1-1v1zm30 0v-1h-1v1zm-4-1h1zl-1 1zm11 1v-2h-2l1 1zm-38-1-1-1v1zm34 0 1-1h-1l-1-1-1 2zm6 0v-2h-1v1zm-15-1v-1l-1-1c1-1 0-1-1-2l-1-1h-1l-1 1v1c2 3 4 4 5 3m5 0v-1h-1l-1 1zm6 0v-2h-1v1zm-37-1-2-1v1zm33 0v-1l-1-1v2zm-37 0 1-1c-1-1-1-2-2-1v1zm7 0v-1l-1 1zm37-1v-1h-1l-1 1zm-11 0v-1h-1l-1 1zm-27 0 1-1h-1l-2 1zm-4 0v-2l-1 1zm38 0v-2h-2v1zm6-1-1-1v-1 2zm-10 0c1-1-1-2-2-1v1zm-5-1v1zm-32 0v-1l-2 1zm5 0h1c0-1-1-2-2-1v1zm38 0v-1h-1l-1 1zm-4 0-1-2-1 1zm-29-1v-1l-1 1zm25 0v-1l-1 1zm-33 0h-1zm29 0q1.5 0 0 0l-1-1v1zm14 0v-1h-2v1zm-37-1h-1c-1-1-1 0-1 1zm-4 0-1-1-1 1zm37 0v-1l-1 1zm-32 0v-2l-1 1zm24 0v-1zq-1.5 0 0 0m4 0v-1h-1zm9-1-1-1 1 2zm-40 0-1-1v1zm37 0v-1l-1 1zm-41 0 1-2-2 1v1zm9-1h-1c-1 0 0 0 0 0l1 1zm29 0h-1v1zm-4 0s0-1 0 0h-1zm-28 0v-1h-1l-1 1zm4 0v-1h-1zm-8-1-1-1 1 2zm41 0h-1v1zm-3 0h-2zm5 0-1-1v1zm-38 0v-1l-1 1zm30-1h-1v1zm-33 0v-1h-1v1zm-3 0c0-1 0-2-1-1v1zm8 0-1-1v1zm-3-1-1-1v1zm-3 0v-1h-1l-1 1zm42 0-1-1h-1l-1 1zm-5-1v-1h-1l-1 1zm-33 0h-1zm40 0c1-1 1-2-1-1l-1 1zm-47 0-2-1v1zm4-1h-1l1 1zm33 0h-1v1zm-36 0v-1l-1 1zm42 0v-1h-1l-1 1zm-7 0v-1h-2zm9-1h1v-1h-2v1zm-6 0-1-2-1 1v1zm10-1v-1l-2-1v2zm-27 0v-1l-1 1q-1.5 0 0 0zm-23 0h1l-1-1c-1 1-1 0 0 0l-1-2v-1h2l1-1 2-1v-1h-2v-1l1-1 2 1v-2h-1 3v-1l-1-1-1 1h-2l3-2 1-1 1-1h1l1-1h-3l-2 1 2-1 1-1 1-1h1v-1h-4l6-3-1 1v1l1 1a38 38 0 0 1 2-2l-1-2-2-5-1-2v-1l3 6 1 3h2v-1l-1-1-1-2v1h2v-2h1l1 1 1-1h1l-3-2 1-1 1-1 1-1h2l-1-1h2v-1h-2c-3 1-2 0 0-1l3-1-1 1 1 1h2l-1 1v2h2v1c1 1 0 1-1 1h-1v1h2v1l1 1h2v1l-2 5v3l1 1 1-1h1v-2h3l1-1h-3l1-1 1-1h2-1l1 2v3l1 2 2 2v1l1 1v1h1v-1l-1-3 1 1h2l2-2h1l3-1 2-1 1-1v-1h-2a225 225 0 0 1 1-1l1-1 1 1v1l1 1v-4l-1-1v-1c0-2 0-2-2-2h-2l-2 1c-1 1-1 1-1-1l1-1-2-1h-3l-2 1 1-1 1-1v-2l-1-2-1-2h-1l1-1h1v-3c0-4 0-4-2-5l-5-1h-1c-1 0 0 0 0 0l1-1-6-1h-2c-6-2-16-1-23 1l-9 5-5 5-1 2-1 3-1 3a41 41 0 0 0 2 20l1 2c1 2 2 4 4 4a20 20 0 0 0 6 2zm6-21 2-2-1 2zm27 21-1-1zm2 0v-1l-2-1zm-32 0 1-1v-1h-1l-1 2zm39 0c1-1 0-2-1-2l-1 2zm-22 0-2-2v1zm7-2c1-1 1-2-1-1l-2 1v1h1zm-19 1 1-1-3-2-1 1 1 2zm30 0c1-1 0-2-2-2v2zm-16 0-1-2h-1l-1 1h1zm23 0v-1l-1-1-1 2zm7-1h-2l1 1v-1zm-20 0v-1h-1l-1 1zm16 0v-2c-1-1-2-1-2 1 0 1 0 2 2 1m-24-1h1l-1-1h-1l-1 1zm16 0 1-1h-1c-2 0-2 1-1 1zm-38 0h1l-1-1h-1v1zm9 0-1-2h-1c-2 1-2 1 0 2zm6-1v1s0 1 0 0zm17 1-1-1-1 1zm-14 0-1-2h-1v1zm16-1v-1h-1l-1 1zm14 0v-1h-2v1zm-45 0v-1h-2l1 2zm21 0 1-1h-2v1l1 1zm4 0c1-1 0-2-1-2l-1 1 1 1zm13 0v-1l-2 1zm10-1-1-1h-1v2h2zm-41 0v-1h-1v1zm10 0h1l-1-1h-2l-1 1zm17 0v-1h-1c-1 0-2 0-1 1zm-7 0-1-2v2zm14 0-1-1h-1q-1.5 0 0 0c-1 1 0 2 1 1zm-38 0v-2l-2 1v1zm27-1v-1h-2v1zm-18 0-1-1zm7 0v-1c-2 0-2 0-1 1zm24 0v-1c-2-2-3 0-2 1zm-19 0-2-2v1l1 1zm12 0v-1l-1 1zm13-1h-1v1zm-43 0-1-1c-1 0-2 0-1 1zm2 0c1 0 0 0 0 0s-1 0 0 0q0 1.5 0 0m7 1v-2h-1l-1 1zm18-1-1-1h-2l1 1zm13 0-1-2h-1v2zm-45 0v-1l-2 1zm25 0-2-2v1zm12 0 1-1-1-2-2 1h1v2zm-27-1h-1v1zm-4 0v-1h-1v1zm11 0-1-1h-2l1 1zm10 0v-1l-2-1v2zm7 0-1-1v1zm14 0-1-1-2-1v2zm-36 0v-1c-1-1-2 0-1 1zm28 0-1-2h-1v1zm-38 0v-2l-1 1zm6-1-1-1v1zm11 0v-1h-1v1zm11 0 1-1-1-1h-2v2zm12 0v-2h-2v1zm-37-1v-1h-2v1zm10 0-1-1-1 2zm8 1v-1h-1zm-12-1v-1c-1-1-2 0-1 1zm14-1h1-3v1zm8 0-1-1h-1c-1 1 0 2 1 2zm12 1v-2h-2v1zm3-2v-2h-2l-1 1 1 1 1 1c1 2 1 1 1-1m-31 1 1-1-2 1zm-10 0v-1l-1-1-1 1v1zm6 0v-1l-1-1v2zm8-1h-1l1 1zm17 1v-1c-1-1-2 0-2 1zm-35-1-1-1-1 1zm25 0v-1l-1-1-1 2zm12 0c1 0 0-2-1-1v1zm-24 0v-1l-2-1v1zm8-1s-2-4-3-3v1l1 2 1 1zm-5 0v1zm-14 0h1l-1-1h-2v1zm4 0h-1v1zm34 0h1l-1-1h-2v1zm-32 0 1-1c-1-1-3-1-2 1zm20 0-1-2h-1v2zm-14-1h2l-2-2-1 1v1zm10 0v-2h-2l-1 2zm-20 0c0-2-1-2-2-2l1 1zm39 0v-1l-2-1v1l1 1zm-33 0v-2h-1v1zm3-2h1l-1-1h-2v1l1 1zm32 0v-1l-1 1zm-19 0v-1l-2-1v2zm-20 0-1-1v1zm11 0v-1l-1 1zm-14 0v-2l-2 1 1 1zm6-1-1-1c-1 0-2 0-1 1zm7-1v-1h-2v2zm-5 0v-1h-3l1 1zm-6 0-1-1-1 1zm2-1h-1zm7 0v-2h-2l-1 1 1 1zm4 0v-2l-1 2zm-8-1c0-1-1-2-2-1l-1 1zm7-1v-1h-2v1zm-5 0v-2l-2 1h-1l1 1zm3-2v-1h-2v1zm4 0c1-1 0-1-1-1v1zm-10 0v-2h-1l-1 1h1zm4-3h-3v1l1 1 1-1zm5 2v-2h-2l-1 1zm-3-2v-2h-2l-1 1 2 1zm28-1v-2l-1-4-3-4-1-2-4-3-1 2 1 4c1 0 1 1 0 0h-1v2l1 3h1l2-1v1l-1 1h-1l1 1 2 1 1-1 1-1v2l-1 1zm-30-2-2-1v2h1zm2-1v-1h-2v1zm26-11c1-2 2-5 1-6s-1 0-2 1l-1 2-1 1v1l-1 1 1 1 1 1zm-4-1 1-3 4-7 1-7-1-9-1-5-3-5-2-1a22 22 0 0 0-6-4c-3-1-9-3-14-3l-1 1h-3c-5 0-10 2-10 3h-1l-1 1-6 5-2 2v1c-2 0-3 3-4 8l-1 10c1 5 2 6 4 8v1h2a60 60 0 0 1 22-3h3v-1h1c2 2 4 2 2 0l-2-1c-1 0-2 0-1-1h5v-1h4l-1-1v-1h-2c-2 0-1-1 1-1l2-1v-1l3 1v-2h-2v-1h1v-1h2l-1-2 1-1 1-2h2v-1h-2v-1l1-1c-1-1 0-1 0 0h1v-2h-1v-2h2l-1-1-2-1h-1l1-1h1v-2h-2v-1h2l1 1 1 1v1h-1l1 1h3l-1 1-1 1 2 1-2 2 1 1 1 1 1 1h-1l-1 1v1l1 1c1-1 1 0 0 0v2c1 0 1 1 0 0h-3l1 1h1v2l-2 1 1 2h1l-2 1v2h-1l-2-1v2h1v2l1 1-1-1h-2v1l2 1h1l-1 1h-2c-2 0-2 2 0 2a10 10 0 0 1 2 2l2 1zm-22-8h1s1 0 0 0zm-26 6v-3l-1-2c-1-3-2-4-3-3l-1 3 2 5zm39-2-1-2-2-1v2zm3-2-1-1h-3l1 1 2 1zm-7 1-2-1v1a391 391 0 0 1 2 0m1-2v-1l-2-1c-2 0-2 0-1 1zm3-1c1-1 0-2-1-2l-2 1 1 1zm3-1v-1l-2-1v2zm-2-2v-2l-2-1v2zm3-1v-2h-3l1 1zm3-2-1-1-1-1v2zm-3-2h1v-1l-2-1-1 1 1 1zm4-2-2-1h-1v1l2 1zm-3-2 1-1-2-1-1 2zm3-1v-2h-2v2zm0-4v-2h-1v2zm1-4-1-1c-1-1-2 0-1 1z"/></svg>