<svg xmlns="http://www.w3.org/2000/svg" viewBox="50 0 537 600"><path fill="#000603" d="M82 4c14 5 24 24 31 36l2 2a1502 1502 0 0 0 17 51l1 2 4 14 1 3c3 8 6 11 13 15l2 1c0-4 0-6-2-10-4-6-3-14-1-21 3-11 10-20 20-25 5-2 10-3 15-1 4 2 6 4 8 9a39 39 0 0 1-30 46l-1 8 5 2 7-4h2v-3c0-5 2-8 5-12 9-7 19-11 30-11v-3c2-9 5-19 10-27l4 1a57 57 0 0 1 5 8c11 20 16 41 18 63v3l1 20c-2 16-2 16 3 30l12 8 9 7c4 4 4 4 9 6l-2-2c-17-28-20-51-18-83a2054 2054 0 0 0 1-14v-3l1-2v-2l1-6 4 1a71 71 0 0 1 6 8l4 6 2 3c11 18 16 37 16 58a228 228 0 0 0 4 46c2 6 3 12 8 16l2 2a368 368 0 0 0 18 17l-1-2-10-17-1-2c-11-21-2-45 5-66l3-8v-2l3-7 5 1 3 7 1 2a540 540 0 0 1 4 12c11 31 20 58 6 89l-2 8c2 5 6 9 10 13a272 272 0 0 1 25 29l-1-2c-13-31-13-31-15-44v-3c-3-25 7-51 15-74l4 1c19 80 19 80 11 111l2-2 2-3 3-2c5-7 12-11 21-11 4 0 6 1 9 3 4 5 5 9 5 15-1 10-5 17-11 24l-2 2c-5 5-12 9-20 9h-2l4 8h4l3-4c3-5 9-8 15-9h9c7 1 7 1 13-2l4-6c2-5 6-9 10-12l2-2 5-5 3 1c7 18 6 43-1 61l-6 13a1978 1978 0 0 0-8 15c-6 12-6 12-6 26l7 10a86 86 0 0 1 4 8v-3c2-11 4-21 12-30l1-2c14-14 38-23 57-28h4c1 16-6 30-16 42a228 228 0 0 1-48 41l1 2a835 835 0 0 1 42 110l1 2v11c-4 4-6 5-11 5h-3l-5-2-2-6-1-3v-2l-3-11-1-2c-9-32-22-63-35-94l-12 5a108 108 0 0 1-77 3c-12-4-24-10-34-19l1-4c29-8 55-10 83 2a117 117 0 0 0 21 6l15 1-18-36-10 3c-16 5-34 2-50-5-18-11-37-28-49-46v-3c14-4 31 1 45 6l1-3c1-4 4-7 7-10l7-2v-2l1-3v-3l2-5-3-4-1-2-2-2-2-2-4-6-3 1c-13 5-27 10-42 13h-2c-13 2-26 0-38-3l-2-1-48-15v-3l31-8h4l13-2v-2l-2-1c-7-4-9-12-11-19l-2 1c-6 2-10 4-16 3-4-2-6-4-9-8-3-9-1-17 3-25 4-7 8-11 14-16h-2c-20 1-34-4-51-15l-9-5c-10-6-21-15-28-24v-3l36 1h2c15 3 30 10 44 16a16898 16898 0 0 0 18 8l-7-8-2-2-3-2a4237 4237 0 0 1-18-15c-8-7-16-14-27-15a156 156 0 0 0-18 3l-2 1h-8l-1 2c-1 3-3 4-6 6-7 1-12 0-18-4l-4-4c-3-4-5-4-9-6h-2l-4-2-12-3-2-1-16-6-4-1-3-4v-2l5-3 3-2c8-5 13-5 22-5h11l1-2v-2l1-2 3-4c2-3 2-4 2-7 0-5-2-8-6-11-5-3-9-4-14-3l-8 3c-14 7-30 11-46 6-18-6-34-15-51-24v-4c15-4 30-7 45-8h3c12-1 24 3 35 8l4 1-3-2-1-1a553 553 0 0 0-13-10c-8-6-14-7-23-8-11-1-19-5-27-10l-3-2c-12-8-24-17-35-28l-1-1L0 41v-3a58 58 0 0 1 20 3c30 7 59 23 75 50v2l1 2 5 2 8 4 2 1 18 11-2-2a341 341 0 0 1-20-24C86 62 79 38 81 5l1-1Zm42 118 1 2 2-1-3-1Zm55 17-5 4 3 2 45 32 2 1 2 2 4 2-5-9c-6-9-11-18-14-29h-4c-10 0-19 0-28-5Zm-10 15 1 2 2-1-3-1Zm15 11 1 2 2 3 1 2 3 6c2 5 6 5 10 7a2795 2795 0 0 1 8 3l5 3 3 1 2-1a618 618 0 0 0-31-24l-4-2Zm100 91-3 2-2 1v1c7 1 7 1 13-1l1-4c-4-1-6 0-9 1Zm12 9-2 2 1 4 2-4-1-2Zm9 3-1 7 5 5c6 11 8 22 5 34l-7 14h2a146 146 0 0 1 59 12l2-1a318 318 0 0 0-35-41l-5-6-15-16-5-4-5-4Zm87 47 1 2Zm-2 5 1 2Zm-1 3c-2 4-2 7-2 11l2 1 1-12h-1Zm29 51 6 12 15 22 1 3 2 2 1 2h1l-3-35h-2c-8-1-14-3-21-6Zm-23 1-1 5 2 1c6 6 9 14 10 22v2l1 7 10 7a539 539 0 0 1 9 6l2-1a703 703 0 0 0-31-49h-2Z"/><path fill="#008B49" d="m110 107 14 7 3 2a1101 1101 0 0 1 201 155l3 3 12 13 9 10a258 258 0 0 1 21 24 413 413 0 0 1 24 30c24 31 44 65 62 99l1 2a784 784 0 0 1 52 133l-2 1h-2l-3 1-5 3-1-2a749 749 0 0 0-127-251l-2-3a1096 1096 0 0 0-53-59l-4-5-6-5-15-15-12-11-8-7a277 277 0 0 0-22-19l-13-12a533 533 0 0 1-35-27 940 940 0 0 1-37-28l-9-6-32-23-3-1-5-4-2-1-3-2-1-1v-1Z"/><path fill="#9F3D94" d="m293 277 4 3h4l1-2c4 1 5 4 7 8l2 3c3 9 3 18 0 27-2 5-5 9-10 12h-8c-7-4-10-11-12-18v-5c0-10 1-18 7-25l2-2 3-1Zm92 105 2 3h9l3 5 2 2c4 8 3 20 1 28-2 5-5 10-10 13-4 1-6 2-10 0-6-4-8-10-10-17-1-10-1-20 5-29 4-5 4-5 8-5ZM169 159c9 2 13 8 17 15 5 8 7 17 4 26-1 3-2 6-5 8-4 1-7 2-11 0-9-5-14-13-17-22a54 54 0 0 1-2-13c1-5 2-8 5-12l2 1h6l1-3Z"/><path fill="#008D4A" d="M184 74c4 3 5 5 6 9 1 9-1 18-7 25-4 6-9 11-16 13h-3l-2-4h-8c-3-8-3-14 0-22 6-12 15-24 30-21Z"/><path fill="#008D4B" d="M427 299c4 3 4 3 5 6 2 10-1 18-7 26-5 6-10 11-17 13h-5l-2-4h-7c-3-6-2-14 0-19 3-7 8-13 14-18l2-1c5-4 11-4 17-3Z"/><path fill="#008B4A" d="m269 118 10 13 1 2a113 113 0 0 1 11 25c2 8 2 16 2 24l3 38v3l1 2-1 6c-14-36-28-74-27-113Zm-48-34h1v2a9752 9752 0 0 0 5 37c4 30 4 30 12 58l2 5-1 2a87 87 0 0 1-28-60v-4c0-14 3-27 9-40Z"/><path fill="#9F3D94" d="m284 263 2 7h5v5l-4 4c-3 2-5 5-6 9l-1 3-1 5-1 8c-4 4-10 5-15 6l-7-2c-4-5-4-9-4-15 2-10 8-19 16-26 5-3 10-4 16-4Z"/><path fill="#008B4A" d="M529 392v2l-3 3a266 266 0 0 0-40 42 154 154 0 0 0-16 23c-3-3-2-11-2-15 0-12 4-22 12-30 11-11 34-25 49-25Z"/><path fill="#008948" d="m257 345 114 1c-3 5-15 7-20 9-29 9-55 4-83-6l-11-3v-1Z"/><path fill="#008B4A" d="m331 172 4 8 1 2 2 6 1 2c10 26 17 51 7 78l-3 6-3-7v-5l-1-2a1236 1236 0 0 1-4-34l-1-4-3-50Zm-4 4h1v3c1 25 4 50 8 75v3l1 4v10c-13-16-23-33-21-53 1-15 6-29 11-42Zm40 166 2 2a2886 2886 0 0 1-116-2l9-3 3-1h3l3-1c33-7 64-10 96 5Z"/><path fill="#008A49" d="M225 85c4 3 6 7 8 11v3a176 176 0 0 1 12 77v14c-16-24-16-65-19-93v-2l-1-3v-7Z"/><path fill="#008B4A" d="M533 394c-1 17-12 29-23 41l-3 3c-9 10-20 18-32 26l-2-1a141 141 0 0 1 30-40l17-17 10-10 3-2Zm-193 75a696 696 0 0 1 44 8 136 136 0 0 0 30 2 4615 4615 0 0 0 33 0l-12 6-2 1a101 101 0 0 1-93-16v-1Z"/><path fill="#008A49" d="m190 227 15 5a254 254 0 0 0 39 12c13 4 26 7 39 8v2l-7 2-2 1c-12 4-27 5-38 0l-21-11-8-5-17-13v-1Z"/><path fill="#008949" d="m381 211 4 12v2a1632 1632 0 0 1 3 13c7 31 7 31 6 45v3c0 8-1 15-3 22l-1 4-3 9-2 1a3946 3946 0 0 1-2-18 719 719 0 0 1-2-93Zm-4 250h2c12 0 21 3 32 7 9 4 17 7 27 8v2a368 368 0 0 1-97-11c3-3 5-3 9-4h4c8-2 15-2 23-2ZM44 124a711173 711173 0 0 1 29 4l60 7c-3 3-7 5-11 6l-2 1c-16 6-31 4-46-2l-5-3-3-2-22-10v-1ZM86 11c10 4 16 17 21 25l2 2a160 160 0 0 1 18 48v2l5 15v4C86 28 86 28 86 11Z"/><path fill="#008B49" d="M377 218h1v4a1187 1187 0 0 0 4 95l-5-8-1-3c-12-32-9-56 1-88Z"/><path fill="#008A49" d="M470 323h2c5 27-1 49-13 73l-7 17-1-8 1-2v-3l1-3a508 508 0 0 1 17-74Z"/><path fill="#008C4A" d="M210 109a4616 4616 0 0 1 0 24v4l-1 4h-11c-5 0-9-1-14-3v-6l-5-2c1-7 5-10 10-15 6-4 13-6 21-6Z"/><path fill="#008A49" d="m128 128 4 4-37-3a5268 5268 0 0 0-51-7v-2a1530 1530 0 0 1 19-4c23-4 45 0 65 12ZM9 42c30 5 57 19 77 41l4 8-16-8-3-1A997 997 0 0 1 9 43v-1Z"/><path fill="#008C4A" d="M430 347h14l-1 3-2 17v10c-10 0-17-3-25-9l-2-4h3l-1-6-2-1c0-3 1-4 3-5l2-2 2-1c3-2 6-2 9-2Z"/><path fill="#008949" d="M465 326v4l-1 3a156 156 0 0 0-6 22l-7 39v3l-1 7v2l-1 3-2 4a1060 1060 0 0 1-3-43v-4c-1-11 2-18 9-26l2-3 10-11Z"/><path fill="#008A49" d="m85 18 4 7 1 2 1 3a583 583 0 0 0 38 75l-1 2-19-22-1-2a90 90 0 0 1-23-65Z"/><path fill="#008949" d="M187 221a261 261 0 0 1 22 0 138 138 0 0 1 41 14l31 13h-9l-4-1h-4l-2-1c-26-5-51-12-75-24v-1Zm80-86h1v2c5 32 13 63 25 92v4a2062 2062 0 0 1-22-38l-1-3a68 68 0 0 1-5-30v-19l1-2 1-6Z"/><path fill="#008948" d="M8 45a337 337 0 0 1 29 17l3 2a1706 1706 0 0 0 36 23l2 2 9 7c-23 2-47-20-64-34L8 47v-2Z"/><path fill="#008848" d="M333 393a124 124 0 0 1 14 7l4 1 4 2 3 2 3 1 9 7 1 3 5 15c-16-6-32-24-43-37v-1Z"/><path fill="#008B4A" d="M401 427c5 0 9 2 14 4l13 3v2c-7 3-14 3-21 3h-3c-5 0-9 0-13-2l2-2 5-5 3-3Z"/><path fill="#008948" d="M153 174v8l-35-2c10-10 23-9 35-6Z"/><path fill="#008A49" d="M334 390c12-1 25 2 36 7l-1 11-11-5-3-1-3-2-7-3-2-2-9-4v-1Z"/><path fill="#008446" d="m122 183 32 2 5 11-18-5-4-1-15-6v-1Z"/><path fill="#00130A" d="M344 467a1118 1118 0 0 1 64 11v2l-21-2h-3l-41-8 1-3Z"/><path fill="#001C0F" d="M264 342a132222919 132222919 0 0 0 29 0l13 1h27v1h-30v2a4991 4991 0 0 1-36 0h-9l-5-2c4-2 7-2 11-2Z"/><path fill="#008547" d="M406 416c9 3 17 9 24 15-3 2-6 0-10-1h-2l-15-6 3-8Z"/><path fill="#00130A" d="M378 214h1v5l1 3 1 6a76 76 0 0 1 0 7v6a4372 4372 0 0 1 1 31h-2v10h-1a1217 1217 0 0 1-2-58v-5l1-5Z"/><path fill="#008647" d="M194 192c7 0 14 2 21 4v1a1574 1574 0 0 1-22 3l1-8Z"/><path fill="#008547" d="m513 588 1 5c-4 3-7 5-12 4l-1-4c4-4 6-5 12-5Z"/><path fill="#00723C" d="m110 107 15 8 3 1 3 2 2 1c2 2 3 3 3 6l-17-11-3-1-2-2-2-2-2-1v-1Z"/><path fill="#0C040B" d="m289 275 2 1-1 2-6 10h-3c1-4 2-6 5-9l2-2 1-2Z"/><path fill="#007A41" d="m193 185 11 4 4 1 2 1h-10l-3-1-3-1-1-4Z"/><path fill="#002312" d="M265 342h7v1h-8v2c-8 1-8 1-11-1 4-2 7-2 12-2Z"/><path fill="#006B38" d="M392 368h1c0 5-1 9-3 14h-1c0-5 1-9 3-14Z"/><path fill="#00180D" d="M223 85h2l1 8h-2v5h-1V85Z"/><path fill="#006D3A" d="M159 120c1 5 0 8-1 12h-2c1-9 1-9 3-12Z"/><path fill="#001F10" d="m356 469 7 1-2 1v2l-8-1 3-1v-2Z"/><path fill="#007940" d="m295 259 3 1-9 7-1-2 3-3 2-2 2-1Z"/><path fill="#001B0E" d="m233 152 2 7h-2l-1 2-1-7h2v-2Z"/><path fill="#007E43" d="m130 119 5 2 1 4-7-4 1-2Z"/><path fill="#002212" d="m236 165 2 6h-2l-1 2-1-6h2v-2Z"/><path fill="#006234" d="m128 98 3 1 1 4 1 2v2c-3-3-4-5-5-9Z"/></svg>