<svg xmlns="http://www.w3.org/2000/svg" width="217" height="250" viewBox="30 40 180 180"><path fill="#151D28" d="M149 41c5.75 1.625 5.75 1.625 8 5 1.114 4.01 1.081 7.856 1 12h6c1.542 2.833 2.427 5.404 3.063 8.563.525 2.577 1.102 4.932 1.937 7.437-.305 2.121-.305 2.121-.875 4.438l-.555 2.308a95 95 0 0 1-1.234 4.43L166 87l1.5 1.75c1.996 2.994 1.563 4.789 1.117 8.25-.617 2-.617 2-2.148 3.938-1.796 2.522-1.797 4.001-1.844 7.062-.331 4.683-.331 4.683-3 7.563C159 117 159 117 156 118l-.687 3.313c-1.428 4.011-1.742 4.336-5.313 6.124-2.185.96-3.612 1.563-6 1.563l-.5 2.25c-1.925 3.53-3.938 4.279-7.527 5.855-2.22.943-2.22.943-4.973 2.895-1.948.48-3.909.913-5.875 1.313-5.347 1.257-7.702 2.49-11.125 6.687l-3 1c-1.312 5.758-.803 8.589 2.25 13.625 3.287 5.07 6.474 8.596 12.227 10.715 10.63 1.992 21.838 1.097 32.507-.232C160 173 160 173 162 174c.348 3.66.086 5.81-1.437 9.188-2.706 2.97-3.495 3.253-7.188 4.187-2.379.562-2.379.562-4.375 1.625-.99 2.066-1.294 3.869-1.617 6.129C147 197 147 197 145.063 198.938c-3.558 1.832-6.31 2.176-10.25 2.125l-2.731-.028L130 201l-.187 2.313C129 206 129 206 126.938 207.813c-3.793 1.533-6.903 1.91-10.938 1.187-6.337-3.684-10.12-10.073-12-17-.351-2.788-.503-5.569-.625-8.375l-.117-2.23A794 794 0 0 1 103 176l-2.273-.848C93.38 172.275 87.23 168.826 81 164l-2.531-1.906c-8.953-7.593-13.505-17.813-14.844-29.317-.377-9.705 2.495-18.21 5.566-27.304 2.85-8.12 2.85-8.12 1.809-16.473-2.122-3.183-3.809-4.873-7-7l.313-2.75c.053-3.257.053-3.257-1.977-4.766q-2.171-1.5-4.363-2.968C55.286 69.452 54.265 67.093 53 64l-2-2v-4l4-1-1.937-1.625C50.615 52.556 50.333 50.661 50 47c8.12 1.015 13.673 2.823 18.871 9.281 3.605 5.49 2.472 13.192 1.629 19.407L70 78l2.438-.5c5.465-.767 10.388-1.097 15.75.375C97.904 85.216 99.166 97.763 101 109c6.523-.272 10.324-2.486 15-7 11.239-12.646 17.913-29.311 24.246-44.781 5.205-12.67 5.205-12.67 8.754-16.219"/><path fill="#248552" d="M164 85c2.559 2.146 3.872 3.615 4.938 6.813.082 4.194-1.04 6.462-2.938 10.187l-1 1a197 197 0 0 0-.25 4.813c-.429 4.84-.429 4.84-3.125 7.75C159 117 159 117 156 118l-.687 3.313c-1.428 4.011-1.742 4.336-5.313 6.124-2.185.96-3.612 1.563-6 1.563l-.5 2.25c-1.925 3.53-3.938 4.279-7.527 5.855-2.22.943-2.22.943-4.973 2.895-1.948.48-3.909.913-5.875 1.313-5.347 1.257-7.702 2.49-11.125 6.687l-3 1c-1.312 5.758-.803 8.589 2.25 13.625 3.287 5.07 6.474 8.596 12.227 10.715 10.63 1.992 21.838 1.097 32.507-.232C160 173 160 173 162 174c.348 3.66.086 5.81-1.437 9.188-2.706 2.97-3.495 3.253-7.188 4.187-2.379.562-2.379.562-4.375 1.625-.99 2.066-1.294 3.869-1.617 6.129C147 197 147 197 145.063 198.938c-3.558 1.832-6.31 2.176-10.25 2.125l-2.731-.028L130 201l-.187 2.313C129 206 129 206 126.938 207.813c-3.793 1.533-6.903 1.91-10.938 1.187-6.337-3.684-10.12-10.073-12-17-.351-2.788-.503-5.569-.625-8.375l-.117-2.23A794 794 0 0 1 103 176l-2.273-.848C93.532 172.334 86.853 169.14 81 164v-2l2.281-1.324c3.023-1.863 4.295-3.535 6.219-6.488 4.566-6.8 9.654-12.48 15.559-18.172l2.191-2.141 2.078-2.008c1.891-1.863 1.891-1.863 2.672-4.867l-5-2v-3l1.49-.76c15.862-8.118 31.046-16.464 44.51-28.24 7.05-6.166 7.05-6.166 11-8"/><path fill="#D1E3E1" d="M164 85c2.559 2.146 3.872 3.615 4.938 6.813.082 4.194-1.04 6.462-2.938 10.187l-1 1a197 197 0 0 0-.25 4.813c-.429 4.84-.429 4.84-3.125 7.75C159 117 159 117 156 118l-.687 3.313c-1.428 4.011-1.742 4.336-5.313 6.124-2.185.96-3.612 1.563-6 1.563l-.5 2.25c-1.925 3.53-3.938 4.279-7.527 5.855-2.22.943-2.22.943-4.973 2.895-1.948.48-3.909.913-5.875 1.313-5.347 1.257-7.702 2.49-11.125 6.687l-3 1c-.723 4.481-.723 4.481-1 9l-21-2c3.385-6.77 3.385-6.77 5.875-9.562l1.594-1.79c2.765-2.977 5.66-5.809 8.586-8.628l2.195-2.145 2.078-2.008c1.891-1.863 1.891-1.863 2.672-4.867l-5-2v-3l1.49-.76c15.862-8.118 31.046-16.464 44.51-28.24 7.05-6.166 7.05-6.166 11-8"/><path fill="#CD2339" d="m70 104 .228 1.913L71 108c1.933.947 1.933.947 4.352 1.398 6.129 1.613 11.425 4.302 17.023 7.227q2.884 1.494 5.773 2.977l2.537 1.322c2.118.985 4.06 1.52 6.315 2.076 1.625 1.5 1.625 1.5 3 3l2 1c-.574 3.499-1.735 5.048-4.312 7.438-2.22 2.11-4.095 4.079-6 6.5L100 143h-2l-.687 1.625c-1.403 2.539-3.129 4.6-5.016 6.793-1.513 1.792-1.513 1.792-3.422 4.77-2.033 3.049-3.52 5.09-6.75 6.812-2.125 0-2.125 0-4.437-1.875A154 154 0 0 1 75 158l-1.734-1.883c-7.374-8.54-10.018-18.59-9.664-29.77C64.525 118.59 67.02 111.195 70 104"/><path fill="#C3E096" d="M50 47c8.12 1.015 13.673 2.823 18.871 9.281 3.576 5.445 2.464 13.039 1.692 19.219C70 78 70 78 69 81h-2v2l-3-1 .5-2.625c-.135-3.366-.135-3.366-2.176-4.898a369 369 0 0 0-4.351-2.961C55.286 69.452 54.265 67.093 53 64l-2-2v-4l4-1-1.937-1.625C50.615 52.556 50.333 50.661 50 47"/><path fill="#B2CE8D" d="M68 59h2c2.61 5.22 1.241 13.484 0 19l-1 3h-2v2l-3-1 .438-2.687c-.07-3.287-.07-3.287-1.997-4.72a77 77 0 0 0-3.91-2.417L57 71v-3h9z"/><path fill="#A73242" d="m70 104 1 4c1.933.947 1.933.947 4.352 1.398 6.129 1.613 11.425 4.302 17.023 7.227q2.884 1.494 5.773 2.977l2.537 1.322c2.114.983 4.039 1.606 6.315 2.076l-2 2c-3.832-.369-6.892-1.762-10.309-3.469l-3.013-1.48a4617 4617 0 0 1-6.219-3.102l-3.018-1.48-2.728-1.362C76.76 112.902 74.18 112.252 71 112l-2 2h-2z"/><path fill="#DFC2C5" d="M112 127c2 2 2 2 2 6-2.266 2.184-2.266 2.184-5.25 4.438-3.839 2.92-6.846 5.708-9.75 9.562l-1.625 1.563c-1.59 1.662-2.438 3.347-3.375 5.437l3 2h-8c3.578-8.15 9.729-13.883 16.055-19.98l2.195-2.145 2.078-2.008c1.891-1.863 1.891-1.863 2.672-4.867"/><path fill="#8FC348" d="m61 50 4 2c1.566 4.81.598 8.301-1 13h-8l1-5h2z"/><path fill="#AA4A53" d="M72 153h3l3 3a134 134 0 0 0 6 3l2-4h3c-1.651 3.684-3.271 6.078-6.875 8-2.125 0-2.125 0-4.687-2.25L75 158l-1.812-1.687C72 155 72 155 72 153"/><path fill="#A5CA72" d="M50 47c5.75.75 5.75.75 8 3 .125 3.625.125 3.625 0 7-5.606-1.462-5.606-1.462-7.375-3.875C50 51 50 51 50 47"/><path fill="#98C55C" d="M66 66h3v4h-2v3c-6.625.25-6.625.25-10-2v-3h9z"/><path fill="#9FC46C" d="m61 50 4 2c.75 2.625.75 2.625 1 5l-3 1c-1.667 1.5-1.667 1.5-3 3l-3-1h2z"/><path fill="#E4D0D4" d="M112 127c2 2 2 2 2 6-1.68 1.922-1.68 1.922-3.875 3.75l-2.18 1.86C106 140 106 140 104 140c.573-3.315 1.516-4.823 4-7.062 2.322-2.104 2.968-2.842 4-5.938"/><path fill="#D6E7B8" d="M58 50h3c-.875 7.75-.875 7.75-2 10l-8-1c3.75-3 3.75-3 6-3z"/><path fill="#AD404F" d="m70 104 1 4 5 1-1 3h-4l-2 2h-2z"/><path fill="#BF5463" d="M66 142c1.875.188 1.875.188 4 1 1.877 3.378 2.218 6.176 2 10-3.867-3.222-4.88-6.15-6-11"/><path fill="#C0D0D2" d="m129 110 2 1c-2.234 3.351-3.262 4.816-7.25 5.813L121 117l-1-2a432 432 0 0 1 4.375-2.562l2.46-1.442z"/><path fill="#FAFCFC" d="m116 147-5 2c-.723 4.481-.723 4.481-1 9h-2v-11c5-1 5-1 8 0"/><path fill="#BAD492" d="M51 59h5c1.245 2.49.777 3.41 0 6-1.937-.75-1.937-.75-4-2-.75-2.125-.75-2.125-1-4"/><path fill="#D5CCC9" d="m94 150 1 2-1 2 3 2h-8c1.133-3.4 2.125-4.053 5-6"/><path fill="#8FC545" d="M66 66h3v4h-2v3l-3-1z"/></svg>