<svg xmlns="http://www.w3.org/2000/svg" viewBox="10 0 608 600"><path fill="#000301" d="M385 2c8 4 12 13 15 20a145 145 0 0 1 3 72l-1 1v17l4 28c4-7 4-12 4-20 0-9 1-18 4-27l1-3c7-19 21-34 33-49a672 672 0 0 0 17-20c6 12 3 28-1 40-7 24-18 54-38 71l-3 1c-6 2-9 9-12 15-3 7-3 14-2 22 0 11-2 22-4 33l-2 12h-2v2l-1 3v3l-2 5-1 7 6 7c3-9 6-15 4-24-5-20 6-42 16-59l19-28 10-13 1-2h2c10 24-2 56-11 78-11 26-11 26-21 35l-2 1c-5 2-6 6-7 10l-2 2-1 3-1 2c0 4 2 8 5 11l1 3 2 3a453 453 0 0 1 43 96c11 30 19 60 26 91l1 4 2 9c8-3 12-11 16-19l7-18v-2c2-6 2-9 1-15l-1-3c-2-8-4-12-10-16-12-9-17-25-20-38l-1-42a9745 9745 0 0 0 0-25h3l-2-3c-10-11-16-26-23-40a1171 1171 0 0 0-6-13l-1-3-2-7c16-1 30 8 41 17l17 17v-2a162 162 0 0 1-2-48 2101 2101 0 0 1 1-17v-2a3753 3753 0 0 0 2-14c15 8 21 24 27 39l1-3 22-52h3c3 6 6 12 7 19v2c4 29-1 68-17 93l-4 4-1 5v7l-1 4-1 11a8219 8219 0 0 1-2 22v11l1-2a169 169 0 0 1 31-39l11-12 4-5 1-2h2c6 28-10 62-24 85-15 23-15 23-24 26-6 2-8 8-10 13l-4 18c-6 24-14 59-35 74-4 3-6 6-7 11v5l-1 3a387 387 0 0 0-1 47v3c1 12 4 24 8 36-7 6-7 6-14 6-4 0-6-2-9-6-5-8-6-18-7-28v-2c-2-20-1-39 2-59 4-23 1-45-4-68l-1-2c-4-21-10-42-17-63l-1-3c-11-34-25-70-47-98l-2-4-3 2-4 2-2 1-8 2-1 2c-7 16-22 25-37 32-19 7-45 11-66 11 2-8 8-14 14-20l2-2c17-16 40-26 62-34l-3-1-4-2-2-1-7-5-4-2c-9 2-15 4-20 11a68 68 0 0 1-55 21h-2a2280 2280 0 0 1-45-1c9-18 30-28 49-34l15-5v-2c-1-6 1-10 5-15h-3c-21 0-42 0-63-3 5-13 20-20 32-25l28-10-6-5-2-1-5-4-3-2c-4-2-8 0-12 1-10 4-14 8-20 17-13 16-36 22-56 25a792 792 0 0 1-42 3c4-15 20-26 33-33 18-10 41-22 63-20l4 2c6 2 9 0 14-2l-20-7-3-1-26-6-4-1-21-3c-3 2-4 3-5 6l-1 10c-2 6-6 10-11 14-4 3-9 4-14 3l-6-4-1 1c-18 16-41 21-63 26a6091 6091 0 0 0-11 2l-2 1-11 1c3-11 9-17 17-25h-2a638 638 0 0 1-56 5c9-22 34-34 54-43l6-1v-2h-3l-11-4-2-1-26-15-11-6c7-8 18-10 28-11h33l-2-3c-9-12-17-24-24-37l-4-4-1-4c20-3 37 5 53 17 9 6 16 13 24 21l3-1c9-5 19-7 30-9h4l-2-2a8194 8194 0 0 1-13-13c-18-18-18-18-20-22 15-7 34-3 49 3l5 2-5-12-1-4-9-22-1-5c14-1 26 7 37 15l20 22 1 2c17 21 17 21 16 33-1 8 4 13 9 19a856 856 0 0 1 1-3c-3-5-4-10-6-16l-1-3c-6-20-8-41-10-62 11 1 19 9 26 17 15 20 30 48 29 73l-1 4c-2 7 2 15 5 21 6 8 14 12 22 17l14 10 5 3 2 1 1 1c-1-3-2-4-5-6-14-10-19-25-22-42l-1-22V55c9 2 15 9 20 17a145 145 0 0 1 21 74c0 4 0 7-2 11-2 5-1 8 0 13v2c2 8 7 11 13 15 14 11 26 24 38 36 4-9 4-9 3-18l-2-3-4-9-3-1c-13-5-21-14-27-27-11-23-13-49-16-74 11 3 11 3 15 6l2 2 1 1v-4l2-6v-5l-1-3a436 436 0 0 0-3-35v-4l-1-20c10 1 16 9 22 16l1 2 5-22 1-8V8l2-6ZM123 108l1 3 1 8c1 5 4 8 8 11l2 2c4 3 7 4 12 5h9l8 1-3-3h-2l-3-6c-1-5-3-8-8-10a239 239 0 0 0-14-6c-5-4-5-4-11-5Zm126 5c1 3 3 5 6 7l2 2 3 1 2 2 6 4v-4c-1-3-3-3-6-4-3-2-6-3-8-6l-5-2Zm121 1 2 4 1-3-3-1Zm-169 12-21 3v7c2 4 4 6 9 7l12 3 14 3h3c18 4 37 9 52 20l3 2 11 9c4 4 6 6 12 7h8c7 0 11 1 17 4h8a262 262 0 0 0-41-34 425 425 0 0 0-23-18c-8-8-8-8-19-10-5 0-6 0-8 4l-2 3c-5 4-12 4-18 3-4-1-7-3-9-7l-1-7-7 1Zm-31 12 3 2v-2h-3Zm-53 11-3 1-6 3-1 3 4-1 3-1 5-2c7-2 15-3 22-1l5-1 2-2v-1l-6-1-4-1c-9-1-14 0-21 4Zm272-2-1 4 1 2 1 3 1 2c3 10 5 19 2 29l2 7h2c3-13 6-27 1-40l-7-7h-2Zm-70 57-3 5 2 2 12 12c11 13 23 23 40 26l9-1c1-8-4-14-9-20l-15-15-6-6-5-4-2-2c-6-5-17-3-23 3Zm-20 17 7 4 4-2-5-5c-3 0-4 1-6 3Zm9 13-2 7 2 1h2l3 1 5 3 5-1h3l2-1c-4-5-7-10-12-14-3 0-5 2-8 4Zm219 49c0 10 0 10 4 18l2 2c1-4 0-7-1-11v-2l-2-6-3-1Zm-31 13 3 5 2 3 5 6 1-10-4-2-3-1-4-1Zm36 22 1 3Zm-21 3a2243 2243 0 0 0 4 14c5 14 7 28 9 42h1a9486 9486 0 0 0 5-30v-2c2-8 2-8-1-16-2-3-4-4-8-4l-3-1c-3 0-5-1-7-3Zm10 68-2 4 2 4 1-8h-1Z"/><path fill="#008A49" d="M108 126c3 3 3 4 4 8 11 3 22 5 34 6a218 218 0 0 1 44 7l2 1c13 2 25 4 37 8l3 1a212 212 0 0 1 89 63l12 13c9 9 22 17 34 19l15-1c1-9-1-15-6-22l-1-2-11-11-9-8-13-12-7-6a391 391 0 0 0-43-35l-7-6-24-18c3 0 4 1 7 3l2 1 3 2 5 4 3 2 13 9c41 28 41 28 58 43l2 2a626 626 0 0 1 23 21c10 9 10 9 11 14l-2 6h4v-3l3-14 1-3a3174 3174 0 0 1 7-27h1a135 135 0 0 1-7 33 1284 1284 0 0 1-2 14l3 4c29 31 45 74 59 113l1 2 9 28 1 3 10 39 3 11a29886 29886 0 0 1 8 30l9-1c23-19 28-64 32-92l2-10a1229 1229 0 0 0 12-83h1l-4 53v2c-6 65-6 65-16 94l-3 9c-4 14-10 28-20 40l-2 2c-5 7-5 7-9 9-3 3-3 6-3 11a425132327 425132327 0 0 0-1 18c-3 35-3 35 5 69v5l-6 2c-5-1-6-2-8-6-7-15-6-33-6-49v-3c0-13 1-27 4-40 6-36-8-79-19-113l-1-2c-6-20-12-39-21-58l-1-3c-10-20-20-39-33-57l-1-2c-2-2-2-2-5-2h-16a51 51 0 0 1-29-5c-5-4-10-7-14-12l-2-2-3-4-34-36-2-2c-18-18-37-31-61-39l-3-1c-31-10-64-14-97-19l-3-1c-12-2-12-2-24 0-7 4-13 5-21 5h-3c-11 0-21-3-31-8l-3-1-29-17 7-4h3c23-6 61-4 80 11Z"/><path fill="#008C4A" d="M302 63c14 7 20 26 25 40a175 175 0 0 1 7 25c2 10 2 20-2 30l-1 4v4l-2-5-2-1c-10-4-16-15-20-25-6-16-5-33-5-49a7715 7715 0 0 0 0-23Z"/><path fill="#008B4A" d="M486 294c13 6 20 25 25 37a142 142 0 0 1 8 49c0 4 0 7-3 10l-2 4a67 67 0 0 1-27-48 141 141 0 0 1-1-21 4036 4036 0 0 1 0-31Z"/><path fill="#008C4A" d="M452 125c3 3 2 5 2 9 0 29-11 68-31 89l-6 4-5 5v-10a65 65 0 0 1 5-42 252 252 0 0 1 35-55Zm10-94h1c0 10 0 19-3 28l-1 3c-5 18-12 37-24 53l-2 2c-4 7-9 11-16 14l-2 2c-4-28 5-49 21-71a348 348 0 0 1 25-30l1-1Zm-92 235 3 2 6 1c-9 16-22 27-39 34l-3 1a158 158 0 0 1-39 8l-3 1h-12c13-23 46-38 70-45 6-2 11-3 17-2Z"/><path fill="#008D4A" d="m226 175 3 3 3 2a74 74 0 0 1-45 32l-3 1c-16 3-32 4-48 4 14-22 46-34 70-41 7-1 13-2 20-1Z"/><path fill="#008D4B" d="M127 54c28-2 55 9 76 27 5 4 7 7 8 13l4 4 2 1-9 1h-4c-14 3-26 0-38-8-10-6-18-15-27-23a1273 1273 0 0 0-7-8l-3-3-2-4Z"/><path fill="#008C4A" d="M590 282h1c0 7 0 13-2 19l-1 3c-7 25-19 57-40 74l-7 3-2 1c-1-34 12-57 35-81l11-13 2-2 2-3 1-1ZM142 156l-1 2-9 14c-5 11-17 17-27 21a255 255 0 0 1-55 13l10-14 2-2a162 162 0 0 1 59-35l2-1c7-2 13-2 19 2Zm169 90 3 3 6 1-2 2-7 7a66 66 0 0 1-42 20l-3 1h-17l-30-1c13-17 39-28 60-31h11l8-2c4-2 9-1 13 0Z"/><path fill="#008D4B" d="M458 225c13 2 23 9 33 18l3 2a116 116 0 0 1 18 21c7 8 11 16 12 27h-2c-5 0-8 0-12 3-8-1-17-7-22-13-10-13-30-41-30-58Z"/><path fill="#008C4A" d="m561 163 3 3c2 8 3 17 2 26v2c0 24-2 54-17 74l-4 1c-3-1-4-4-5-7-11-28 2-56 13-82l8-17Z"/><path fill="#008D4A" d="m103 147 2 1h2l-3 4-1 2c-4 6-8 10-14 13l-4 3-2 1-8 5c-10 6-22 8-33 9h-4l-28 2c10-15 28-24 44-32l2-1c9-4 16-6 25-5 5 0 9 0 14-2h8ZM47 65c20 0 38 13 53 25l2 2c8 6 19 17 20 28v6h-7c-3 0-4-2-7-4-8-4-16-7-25-9-16-6-28-33-36-47v-1Z"/><path fill="#008C4A" d="M345 98c8 4 14 9 20 17l1 1c3 4 3 4 3 7l-1 2c-1 6 1 11 4 16 3 3 5 5 9 6 5 3 5 7 7 12l1 3c3 9 3 19 0 29l-1-2-3-1c-10-2-18-11-24-20a132 132 0 0 1-13-47l-3-23Z"/><path fill="#008B4A" d="M513 180c11 5 16 22 20 33 2 5 2 8 1 13-1 14-1 29 5 41v8l-3 4-2 4-3-3-4-3a62 62 0 0 1-16-38v-20c0-13 0-26 2-39Z"/><path fill="#008C4A" d="M163 19c22 4 40 25 52 43 12 17 12 17 11 27 0 4 0 6 2 10l-1-2c-4-3-8-3-13-4v-3c-4-10-14-17-23-22l-6-2c-8-5-11-15-14-24l-2-6-6-17Zm119 175 5 4 2 3 3 2 2 3c7 7 7 7 7 9-21 9-42 9-65 7h-6l-3-1-5-2c12-11 43-30 60-25Z"/><path fill="#008B4A" d="M229 28c5 1 7 4 11 7l1 2c18 18 32 48 32 73l-2 11-1-2-4-1c-6-2-11-6-15-10v-2l3-2c5-4 8-8 9-15 0-5 1-9-1-13l-4-3-11 1-7 12-4-9-1-2v-3l-1-3c-3-13-5-27-5-41Zm-58 70c10 7 24 7 36 5 3 0 4 0 6 2l5 7 2 2c-13 7-25 12-40 11v-2c-2-6-4-12-9-16l-10-1c-4 3-6 6-7 11l-21-9-3-1-8-4v-2c14-6 35-12 49-3Z"/><path fill="#008B49" d="M387 11h2a102 102 0 0 1 12 32c2 15 4 35-2 49l-3 3c-6-2-9-7-11-13-7-17-4-35-1-53a10477 10477 0 0 0 3-18Z"/><path fill="#008B4A" d="m359 30 10 8 2 3 2 2 2 3c2 4 3 7 3 11 0 14 2 28 12 38 3 4 3 7 3 12l-5-2-1-7c-2-5-4-7-8-10-5-3-10-2-15-2-4-18-6-37-5-56Z"/><path fill="#008044" d="m114 135 6 1 17 3h2a1670 1670 0 0 0 35 5l12 2 2 1a2475 2475 0 0 0 39 8l-2 1v2l-17-4a451 451 0 0 0-44-8 2018 2018 0 0 0-52-9l2-2Z"/><path fill="#008547" d="M296 190c7 0 13 0 20 3l2 2 6 1-3 2-2 2-7 6-1-1-12-12-3-3Z"/><path fill="#006E3A" d="m114 135 6 1a212 212 0 0 0 38 5l12 2-2 3-33-4-2-1-21-4 2-2Z"/><path fill="#008245" d="M389 113c5 3 5 3 6 6v9l-2-2c-3-4-6-7-11-9l-4-3c4-3 7-3 11-1Z"/><path fill="#00703B" d="m261 130 12 7 14 10-1 3a5400 5400 0 0 1-13-10l-3-2-3-2-6-6Z"/><path fill="#006837" d="M542 282h1v11l-1 3-1 19h-1c-2-11 0-22 2-33Z"/><path fill="#006133" d="m160 142 10 1-2 3-9-1 1-3Z"/><path fill="#006D3A" d="m221 154 6 1-2 1v2l-6-1 2-1v-2Z"/><path fill="#006F3B" d="m204 150 7 1-2 1-1 2-6-1 2-1v-2Z"/></svg>