<svg xmlns="http://www.w3.org/2000/svg" viewBox="50 0 573 600"><path fill="#000500" d="M71 0a37 37 0 0 1 14 4l3 2 3 1 10 5 3 1a193 193 0 0 1 54 37 237 237 0 0 1 33 36 506 506 0 0 1 48 62l4 6-1-2c-1-4-2-8-1-13l5-5c7-1 13 2 19 6a141 141 0 0 1 12 11c6 6 11 16 12 25l-3 7-5 2 12 8-3-12 3-1 4 3a2652 2652 0 0 0-12-29c-4-11-10-18-17-25l-7-7-10-13c-27-31-48-67-67-103l4-1 6 5 4 3 1 2 7 5a316 316 0 0 1 51 55c23 35 44 80 54 121 1 5 3 8 7 11l5 6a3099 3099 0 0 1 26 22l2 1a373 373 0 0 1 22 18c0-9-2-18-4-27l-1-4c-3-18-3-18-11-34a5035 5035 0 0 1-15-25c-19-31-32-64-44-98l-1-3-1-3-1-3-1-5c3 1 5 1 7 4l2 2 1 1 2 2 14 17 2 2c11 14 21 27 28 43l1 3a255 255 0 0 1 17 51c3 13 7 26 9 40l1 2 4 25v2l1 9c1 8 3 12 9 17l2 2 4 4 2 1 16 17a170 170 0 0 0 3-30c1-13-1-23-6-35l-3-12-2-5c-11-32-15-65-18-98l-1-3v-13c3 0 4 1 5 3l2 2 1 3 1 2 2 3c18 34 31 66 31 105v3l-3 63v3l-2 11c-1 6-1 6 2 12l6 7v-3c-1-10-2-20 5-28 4-2 7-2 11-1 9 5 13 14 15 23 3 9 3 19-1 28-2 3-3 3-6 5h-7l1 1 4 7 1 2 8 15 5-25 1-4 1-10v-3c1-9-2-17-4-26l-4-15-1-3-5-23-1-3a330 330 0 0 1-3-84h3c27 55 34 101 25 162v2c-2 14-4 28-8 41-1 5 0 9 3 13l1 4 2 3 18 39 1 2a2693 2693 0 0 1 5 9l2-8v-3l2-7v-2c2-8 0-13-3-20l-2-7-1-4c-7-23-8-47-8-72l3-1c20 34 20 34 23 49l1 3v14l-1 8c0 9 2 13 8 20a89 89 0 0 1 15 55c0 17-1 33-5 50v2l-1 2c0 7 2 13 4 20l2 3a2440 2440 0 0 0 14 38c0 6-3 10-7 14l-4 1c-4 0-4 0-6-2-4-5-5-11-7-17l-13-39-1-3-9-25-1-4h-2c-53 1-91-6-135-36l1-3c33 5 63 14 93 28 5 2 9 3 15 3h4l4 1h17l-23-57-1-2-7-15-1-5a195836730 195836730 0 0 0-29 3c-48 3-48 3-68-2l-4-1c-17-5-34-15-49-26v-1c25 1 51 3 75 12a118 118 0 0 0 61 10l10-1-4-8-3 1c-11 1-21-6-29-12s-16-15-17-25l2-7c4-3 8-3 13-2l12 5 3 1-10-9-4-3-1-1a427 427 0 0 1-54-45l-9-8-4-5c-10-11-23-13-37-17l-14-3-3-1c-13-4-26-8-38-14-6-3-11-2-17-2a1021 1021 0 0 1-30-2h-2c-29-5-58-19-82-35v-3a310 310 0 0 1 36 1l42 6c-5-5-9-7-16-8-20-3-39-13-57-22v-3a1085 1085 0 0 1 23 0 321 321 0 0 1 90 16c7 2 14 1 20 0l7-1 12-2-31-23-4-3c-4-2-7 0-11 1l-36 4h-3a229 229 0 0 1-105-7c-20-7-41-17-58-29v-1l33 1h2a475 475 0 0 1 118 26h4l-2-1c-8-4-15-8-19-17v-9h-3l-12-3h-2c-37-10-75-21-106-45l-1-1-23-19-2-2-10-9v-3l29 10 3 2c28 11 54 23 80 39l3 2 13 9c7 5 15 8 24 11l4 1c7 2 14 2 22 2h-2c-8-2-13-7-19-12l-6-5-2-2-22-16-4-4c-8-6-17-8-27-11l-16-5-3-1a334 334 0 0 1-88-42l-3-2c-5-3-10-5-14-9v-3c28 0 59 5 84 18l2 1c12 6 23 12 34 20l2 1 16 12 2 2a1210 1210 0 0 1 47 36c10 9 20 15 31 21l11 6a332 332 0 0 0-23-31c-8-11-17-17-28-24l-12-8-2-1-6-5-2-2a401 401 0 0 1-71-62 8062 8062 0 0 1-5-5c-9-9-9-9-9-13Zm173 156 1 2Zm1 2 1 2Zm2 3 1 3v-3h-1Zm-5 8-1 8 9-2c-2-3-5-5-8-6Zm48 50h-2a3064 3064 0 0 0-17 2h-3l-17 2 12 7a302 302 0 0 1 26 16l5 3c4 3 8 2 13 2h2l11-3-1-1-14-29-15 1Zm20 40 13 10 2 2c5 3 10 5 16 6l-15-19-16 1Zm50 1 5 10 1 2 2 3 2 2c3 7 3 7 9 11h4l4 1h3l-1-1-2-2-1-2-4-4-8-8-10-10-4-2Zm23 37c5 14 15 23 26 32a2637 2637 0 0 1 24 20l2-1a371 371 0 0 0-33-48c-3-2-5-2-8-2l-3-1h-8Zm131 139-1 3a84607 84607 0 0 1-2 8v2l-2 5c-1 5 0 8 2 13a1253346481 1253346481 0 0 1 19 47h2l1-7 1-3c1-12 0-21-5-31l-3-7-2-4-6-16-1-3-2-7h-1Z"/><path fill="#010400" d="m392 106 10 17 1 1a462 462 0 0 1 21 53l1 2c3 14 3 28 3 43v3c0 25 0 50-5 75-2 12-2 12 1 22a114 114 0 0 0 5 8l1 2a214 214 0 0 1 10 15 620 620 0 0 1 35 68 975 975 0 0 1 33 79l1 2 2 8h2l4 3 1 2-5 1v-2h-3a5636 5636 0 0 1-18 0c-44 0-78-8-115-33h11l2 1a705 705 0 0 1 9 1c16 4 31 9 47 15l1 1 10 4 3 2 3 1h6l6 2h6l4 1h21l-23-57-1-2-7-15-1-5a195836730 195836730 0 0 0-29 3c-48 3-48 3-68-2l-4-1c-17-5-34-15-49-26v-1c25 1 51 3 75 12a118 118 0 0 0 61 10l10-1-4-8-3 1c-11 1-21-6-29-12s-16-15-17-25l2-7c4-3 8-3 13-2l12 5 3 1-10-9-4-3-1-1a427 427 0 0 1-54-45l-9-8-4-5c-10-11-23-13-37-17l-14-3-3-1c-13-4-26-8-38-14-6-3-11-2-17-2h-10l-20-2h-2c-29-5-58-19-82-35v-3l33 1h3l42 6c-5-5-9-7-16-8-20-3-39-13-57-22v-3a773 773 0 0 1 54 3v2h2a157 157 0 0 1 28 5l21 6c13 4 28 2 41 0 9-1 9-1 12 1l-1-2-4-10-2-4-1-3-1-3v-5c11 12 23 24 33 37l5 6 4 5 3-1 3 2 2 2 2 2 2 1a1062 1062 0 0 1 58 53l3 2 6 9c7-32 6-58-6-88l-6-20-1-3a361 361 0 0 1-11-70v-2l-1-16ZM290 219h-2a3064 3064 0 0 0-17 2h-3l-17 2 12 7a302 302 0 0 1 26 16l5 3c4 3 8 2 13 2h2l11-3-1-1-14-29-15 1Zm20 40 13 10 2 2c5 3 10 5 16 6l-15-19-16 1Zm50 1 5 10 1 2 2 3 2 2c3 7 3 7 9 11h4l4 1h3l-1-1-2-2-1-2-4-4-8-8-10-10-4-2Zm23 37c5 14 15 23 26 32a2637 2637 0 0 1 24 20l2-1a371 371 0 0 0-33-48c-3-2-5-2-8-2l-3-1h-8Z"/><path fill="#000500" d="M496 321c9 10 15 24 20 36l1 2c5 12 4 24 3 36 0 9 2 13 8 20a89 89 0 0 1 15 55c0 48 0 48-8 56h-2l-1-7 1-2 1-6v-14c0-9-3-17-7-25a436 436 0 0 1-13-30l-1 4-1 2c-1 4-2 6-5 8l-2 1-1-1c0-5 1-9 3-13l1-13 1-8c0-6-2-11-4-17l-2-7-1-4c-7-23-8-47-8-72l2-1Z"/><path fill="#7C3100" d="M423 312c18 18 35 44 44 68l3 6 5 9 1 2 3 7 1 2a1408 1408 0 0 1 67 167l1 4 1 3 1 2 1 9-4 5-4-1-3-7-1-2-3-12-8-25a11221 11221 0 0 1-12-33l-2-7h4c-2-3-4-4-7-5l-2-6-1-2-2-4-4-10v-2l-10-23-1-2a4586 4586 0 0 0-28-66c-5-6-8-13-12-19-6-13-13-24-20-36l-1-2-4-6-2-3-2-2v-6l1-3Z"/><path fill="#007100" d="M456 176c4 5 6 11 9 16l1 4c7 16 14 33 17 50l1 3a207 207 0 0 1-3 71 201 201 0 0 1-4 25c-1 9-2 17-5 26v2l-4 9c-3-6 0-15 1-22l5-26v-3a60 60 0 0 0-3-29v-2c-12-41-15-81-15-124ZM392 106l10 17 1 1a462 462 0 0 1 21 53l1 2c3 14 3 28 3 43v3c0 30-2 59-7 89h-2c-2-7-1-13 0-20 5-28 2-51-8-77l-6-20-1-3a361 361 0 0 1-11-70v-2l-1-16ZM6 37c54 1 97 26 139 58l8 6c17 13 35 26 50 41l-9-4-3-2-7-6a227 227 0 0 0-25-20c-11-9-22-13-35-17l-7-2-3-1C79 79 46 62 14 43l-2-1-6-4v-1Z"/><path fill="#007200" d="M61 155c33-1 66 4 98 14l3 1 16 5c13 5 24 7 38 7h2c7 0 13-1 20-3s15-3 23-2l2 2c-13 4-26 6-39 7h-4a489 489 0 0 1-54 3 154 154 0 0 1-44-5c-15-4-29-11-43-18l-2-1-5-3-3-1-8-6Z"/><path fill="#007100" d="m76 4 13 5 2 1 7 3 2 2c31 15 31 15 44 26l3 3a214 214 0 0 1 40 41l15 18 6 9a5421 5421 0 0 1 28 37l1 2 4 5 2 3 1 4c-8-3-12-12-16-19a272 272 0 0 0-20-26c-9-13-21-20-34-28l-15-11-7-4a237 237 0 0 1-28-23 616 616 0 0 1-41-40l-2-2-5-6ZM299 59l9 9 2 3 2 1 4 6a215 215 0 0 1 48 93c5 17 8 35 12 53v2l2 6v4c2 9 3 18 3 28-5-6-5-13-6-21a272 272 0 0 0-9-42c-1-5-3-8-6-13l-4-5-1-2-15-25-1-2c-13-23-23-47-32-71l-3-8-2-5-1-3-2-8ZM295 187l11 11 6 7a290 290 0 0 1 21 24c21 24 37 51 53 78l1 3 2 2 8 9 2 2 4 3 7 6 22 18 12 12c-4 0-5-1-7-3l-3-2-3-2-3-2a422 422 0 0 1-45-39l-8-7-19-18-2-2a186 186 0 0 1-25-29c-13-16-34-50-34-71ZM190 11l13 10 2 1a806 806 0 0 1 18 17c22 19 37 43 50 69l1 2 18 41 1 3 12 31 1 3 1 2 1 2-1 5c-4-3-5-7-7-12a336 336 0 0 0-12-31c-4-9-8-16-15-23a315 315 0 0 1-13-16 251 251 0 0 1-19-22c-17-22-31-46-45-70l-1-3-2-2-1-2-2-5ZM196 203a45 45 0 0 1 13 4l4 2 3 1a460 460 0 0 1 90 49l3 2 11 8c8 6 14 9 23 11 4 1 5 3 7 6-9-1-17-3-25-6l-4-1-11-3-4-1a212 212 0 0 1-101-63l-6-5-3-3v-1Z"/><path fill="#020200" d="m476 362-2 11c-2 7 0 11 3 18l1 2 6 9a214330116 214330116 0 0 1 18 39l2 4 1-2v-3l1-3 3-4-3 16-1 7 4-2v3l4 12 1 2a1351 1351 0 0 0 13 33l1 2 2 8h2v-3l2-20h1c0 17 0 17-2 25v10l4-2v4a74 74 0 0 0 6 19 1651 1651 0 0 0 7 23l1 2c2 5 3 9 6 13 0 6-3 10-7 14l-4 1c-4 0-4 0-6-2-4-5-5-11-7-17l-13-39-1-3-9-25-1-4h-2c-53 1-91-6-135-36l1-3c33 5 65 13 94 29l-1 2-2-1c-27-12-54-22-83-26l-1 1a195 195 0 0 0 120 32h13l10 26a31593 31593 0 0 0 21 61l5-1c3-7-1-15-3-21l-1-2-2-8-1-3a1430 1430 0 0 0-60-148l-1-2c-5-14-5-14-14-26l-1-4 3-1 2-8 2-8 3-1Z"/><path fill="#007000" d="m34 75 12 4 3 1 7 3h2l36 16 2 1a451 451 0 0 1 59 34c11 8 25 11 38 14l-1 2c-7-1-13-1-19-3l-3-1-32-9-3-1c-22-7-45-16-64-30l-2-1a440 440 0 0 1-33-28l-2-1v-1Z"/><path fill="#000900" d="M191 198a80 80 0 0 1 8 2h2v2h2a157 157 0 0 1 28 5l21 6c13 4 28 2 41 0 9-1 9-1 12 1l4 7 2 2 1 3c3 8 6 15 11 22l1 7c-2 2-7 2-10 2h-2c-8 0-14-2-21-6l-4-3-2-2c-27-17-56-30-86-42l-1 1a525024208 525024208 0 0 1 8 7l2 2 2 2 3 4-1 1a64 64 0 0 1-24-5c-12-4-24-10-36-16v-1h3a6298 6298 0 0 0 35 0l1-1Zm99 21h-2a3064 3064 0 0 0-17 2h-3l-17 2 12 7a302 302 0 0 1 26 16l5 3c4 3 8 2 13 2h2l11-3-1-1-14-29-15 1Z"/><path fill="#007100" d="M148 225c17 1 35 2 52 5l8 1c12 1 20 3 29 12l10 6 2 2 15 8v1c-37 1-65-7-98-24l-2-1-7-4-3-1-6-5ZM511 396c16 15 29 39 30 60 1 24 0 47-6 70h-2l-1-6 1-3 1-8c3-18 0-29-8-45a140 140 0 0 1-12-45l-3-23Z"/><path fill="#007000" d="M332 400a153 153 0 0 1 30 2c16 3 32 7 48 13 17 7 34 8 53 5h12v2l-12 1-4 1c-46 5-88 4-127-23v-1ZM377 474c32 2 64 15 93 29 10 2 20 1 29 2a2405 2405 0 0 1 11 0l5 1v2a6863 6863 0 0 1-22 0c-44 0-80-6-116-33v-1ZM496 325c5 4 7 10 9 15l3 6c6 11 11 23 11 36v18h-3l-3-3-1-2-1-2-1 12 1 3v5c-13-20-15-53-15-76v-12Z"/><path fill="#037E03" d="M221 153c5 2 8 4 12 8l2 2 4 8-3 5c-6 4-13 4-20 2-10-3-18-7-24-15l-1-8c7-9 20-5 30-2Z"/><path fill="#027E02" d="M428 369c11 0 20 7 28 14l1 4 2 1c4 2 5 6 7 10v6c-2 3-4 3-7 4-11-1-21-9-28-16-5-5-9-10-9-17 0-5 1-6 6-6Z"/><path fill="#017F01" d="M450 289c7 5 11 14 13 23 1 9 1 16-4 24-3 2-5 2-8 1-7-4-10-11-13-18-2-9-2-19 2-28 4-3 6-3 10-2Z"/><path fill="#017E01" d="M255 138c8 4 17 10 21 18l2 2c5 5 6 11 6 18l-2 4c-5 1-9 0-14-2-8-6-16-14-21-23l-1-2c-1-4-2-9-1-13 4-3 5-3 10-2Z"/><path fill="#006E00" d="M152 199a539 539 0 0 1 26 0c10 0 15 2 22 9 10 10 10 10 10 12a46 46 0 0 1-22-4c-12-4-24-10-36-16v-1Z"/><path fill="#006D00" d="M201 202a153 153 0 0 1 30 5l21 6c13 4 28 2 41 0h10l1 3a3720 3720 0 0 1-23 3c-36 4-36 4-53-4a724 724 0 0 0-27-12v-1Z"/><path fill="#000B00" d="M513 415h1v3c3 21 10 41 20 61 2 5 3 9 2 15v8h-1v-3c-1-12-5-22-10-33l-10-27-1 3-1 4-1 2c-1 4-2 6-5 8l-2 1-1-1c0-6 2-11 3-17l4-21h2v-3Z"/><path fill="#762F00" d="M340 234c15 9 28 22 40 33l7 6a278 278 0 0 1 29 32v6l-9-10-27-29-3-3a277 277 0 0 0-34-30l-3-5Z"/><path fill="#F1F8F1" d="M261 147c6 0 10 4 14 8 2 3 4 5 4 9v2l-5 1c-6-3-11-9-14-15l1-5Z"/><path fill="#F4F9F4" d="m453 304 5 1c3 4 4 8 4 14v2l-2 5c-3 0-5-1-7-3-3-5-4-9-3-15l3-4Z"/><path fill="#F7FBF7" d="M439 377c7 0 11 2 16 7l4 5-1 5c-4 1-7 0-10-3-9-7-9-7-9-12v-2ZM206 153c7 0 13 0 19 4 2 3 2 3 2 7-3 2-7 1-10 1l-12-7 1-5Z"/><path fill="#006900" d="M511 422h2c1 6 1 11-1 16v3l-6 16-2-1c0-6 2-11 3-17l4-17Z"/><path fill="#006D00" d="M323 252v4a520 520 0 0 1-11 1c-4 0-6 0-10-2l-2-2 23-1Z"/><path fill="#001E00" d="m510 392 5 5 2 2 2 4h-3l-4-6a445028152 445028152 0 0 0 0 20c-2-3-2-5-2-9l-1-2v-13l1-1Z"/><path fill="#060" d="M378 290c6 0 11 0 16 3l2 3h-6l-3-1-8-2-1-3Z"/><path fill="#050" d="M486 505h24l5 1v2h-9v-2h-20v-1Z"/><path fill="#682900" d="m340 234 15 11-3 1-6-4-3-3-3-5Z"/><path fill="#002B00" d="M513 415h1l1 5v6l-2 2v-6h-2v-4h2v-3Z"/><path fill="#147714" d="M444 375c5 2 9 5 13 9l-1 2-2-1-2-2-2-2-6-4v-2Z"/><path fill="#005800" d="m201 202 11 1-2 1-1 2-8-3v-1Z"/></svg>