<svg id="Layer_1" data-name="Layer 1" xmlns="http://www.w3.org/2000/svg" xmlns:xlink="http://www.w3.org/1999/xlink" viewBox="400 100 700 800"><defs><style>.cls-1{fill:none;}.cls-2{clip-path:url(#clip-path);}.cls-3{fill:#fff;}.cls-4{fill:#007a3d;}.cls-5{fill:#ce1126;}</style><clipPath id="clip-path"><path class="cls-1" d="M732.68,892.56c-3.43-12.77-6.36-25.68-10.37-38.26q-18.12-56.87-37.12-113.44c-2-5.87-6.21-11.21-10.24-16.1-4.69-5.69-8.89-10.65-6-19,1.13-3.21-.87-7.77-2.07-11.51q-27.16-84.51-54.63-168.9c-3-9.11-1.74-16.07,5.67-22.29,42.57-35.75,66.42-83.29,87.29-133.65,21.93-52.91,30.34-108.56,40.38-164.08.83-4.55,1.48-9.14,2.17-13.72,1.3-8.53,3.9-14.75,14.91-12.55,7.11,1.42,8.11-4.74,9-10.13,2.49-15.35,4.92-30.71,7.88-46,.27-1.39,4.21-2.76,6.52-2.92,8.8-.59,17.65-.92,26.47-.82,3.44,0,7.39.65,10.19,2.44,13,8.27,28.06,3.22,32.6-11.94,2.11-7,2.08-14.65,3.79-21.81,2.33-9.72,6.28-11.1,15.18-6.15.54.3,1.1.81,1.65.81,15.5,0,13.88,9.73,12.16,20.38-2.52,15.54-4.63,31.17-6.07,46.84a63.59,63.59,0,0,0,1.68,20,201.49,201.49,0,0,1,4.68,32.09c.9,12.21-2,17.4-11.65,22.23-2.11,1.05-3,6-3.19,9.16-1.07,25.25-6.23,50.43-.48,75.84,1.22,5.4.14,12-1.87,17.33-6.86,18.12-5.37,36.9-6,55.58-.68,20.94-1.25,41.92-3,62.79-3,35.76-6.41,71.52-10.77,107.14-1.93,15.83-6.58,31.33-10,47a7.33,7.33,0,0,1-1.07,2.56C820,630,814,664.51,801,696c-3.92,9.46-1.24,21.62-1.74,32.53-.14,3-.16,6.34-1.49,8.87-5.52,10.53-5.79,21.42-2.56,32.43,2.27,7.71.95,14.22-3.06,21.12-7.17,12.31-11,25.59-13.77,39.85-4.86,25-13.08,49.41-20,74a13,13,0,0,1-3.15,5.6c-3.81,3.72-8,7.08-12,10.58-3.55-4.77-7.84-9.18-10.41-14.44-1.93-3.94-1.66-9-2.37-13.52Z"/></clipPath></defs><title>Palestine</title><g class="cls-2"><rect id="_4" data-name="4" x="455.76" y="71.86" width="1026.97" height="291.35"/><rect id="_3" data-name="3" class="cls-3" x="455.76" y="363.21" width="1026.97" height="291.35"/><rect id="_2" data-name="2" class="cls-4" x="455.76" y="654.57" width="1026.97" height="291.35"/><path id="_1" data-name="1" class="cls-5" d="M455.76,71.86l342.32,437-342.32,437Z"/></g></svg>